<svg id="my-svg" width="100%" xmlns="http://www.w3.org/2000/svg" xmlns:xlink="http://www.w3.org/1999/xlink" class="flowchart" style="max-width: 2940.03px; background-color: white;" viewBox="0 -50 2940.033447265625 1342.3529052734375" role="graphics-document document" aria-roledescription="flowchart-v2"><style>#my-svg{font-family:"trebuchet ms",verdana,arial,sans-serif;font-size:16px;fill:#000000;}@keyframes edge-animation-frame{from{stroke-dashoffset:0;}}@keyframes dash{to{stroke-dashoffset:0;}}#my-svg .edge-animation-slow{stroke-dasharray:9,5!important;stroke-dashoffset:900;animation:dash 50s linear infinite;stroke-linecap:round;}#my-svg .edge-animation-fast{stroke-dasharray:9,5!important;stroke-dashoffset:900;animation:dash 20s linear infinite;stroke-linecap:round;}#my-svg .error-icon{fill:#552222;}#my-svg .error-text{fill:#552222;stroke:#552222;}#my-svg .edge-thickness-normal{stroke-width:1px;}#my-svg .edge-thickness-thick{stroke-width:3.5px;}#my-svg .edge-pattern-solid{stroke-dasharray:0;}#my-svg .edge-thickness-invisible{stroke-width:0;fill:none;}#my-svg .edge-pattern-dashed{stroke-dasharray:3;}#my-svg .edge-pattern-dotted{stroke-dasharray:2;}#my-svg .marker{fill:#666;stroke:#666;}#my-svg .marker.cross{stroke:#666;}#my-svg svg{font-family:"trebuchet ms",verdana,arial,sans-serif;font-size:16px;}#my-svg p{margin:0;}#my-svg .label{font-family:"trebuchet ms",verdana,arial,sans-serif;color:#000000;}#my-svg .cluster-label text{fill:#333;}#my-svg .cluster-label span{color:#333;}#my-svg .cluster-label span p{background-color:transparent;}#my-svg .label text,#my-svg span{fill:#000000;color:#000000;}#my-svg .node rect,#my-svg .node circle,#my-svg .node ellipse,#my-svg .node polygon,#my-svg .node path{fill:#eee;stroke:#999;stroke-width:1px;}#my-svg .rough-node .label text,#my-svg .node .label text,#my-svg .image-shape .label,#my-svg .icon-shape .label{text-anchor:middle;}#my-svg .node .katex path{fill:#000;stroke:#000;stroke-width:1px;}#my-svg .rough-node .label,#my-svg .node .label,#my-svg .image-shape .label,#my-svg .icon-shape .label{text-align:center;}#my-svg .node.clickable{cursor:pointer;}#my-svg .root .anchor path{fill:#666!important;stroke-width:0;stroke:#666;}#my-svg .arrowheadPath{fill:#333333;}#my-svg .edgePath .path{stroke:#666;stroke-width:1px;}#my-svg .flowchart-link{stroke:#666;fill:none;}#my-svg .edgeLabel{background-color:white;text-align:center;}#my-svg .edgeLabel p{background-color:white;}#my-svg .edgeLabel rect{opacity:0.5;background-color:white;fill:white;}#my-svg .labelBkg{background-color:rgba(255, 255, 255, 0.5);}#my-svg .cluster rect{fill:hsl(0, 0%, 98.9215686275%);stroke:#707070;stroke-width:1px;}#my-svg .cluster text{fill:#333;}#my-svg .cluster span{color:#333;}#my-svg div.mermaidTooltip{position:absolute;text-align:center;max-width:200px;padding:2px;font-family:"trebuchet ms",verdana,arial,sans-serif;font-size:12px;background:hsl(-160, 0%, 93.3333333333%);border:1px solid #707070;border-radius:2px;pointer-events:none;z-index:100;}#my-svg .flowchartTitleText{text-anchor:middle;font-size:18px;fill:#000000;}#my-svg rect.text{fill:none;stroke-width:0;}#my-svg .icon-shape,#my-svg .image-shape{background-color:white;text-align:center;}#my-svg .icon-shape p,#my-svg .image-shape p{background-color:white;padding:2px;}#my-svg .icon-shape .label rect,#my-svg .image-shape .label rect{opacity:0.5;background-color:white;fill:white;}#my-svg .label-icon{display:inline-block;height:1em;overflow:visible;vertical-align:-0.125em;}#my-svg .node .label-icon path{fill:currentColor;stroke:revert;stroke-width:revert;}#my-svg .node .neo-node{stroke:#999;}#my-svg [data-look="neo"].node rect,#my-svg [data-look="neo"].cluster rect,#my-svg [data-look="neo"].node polygon{stroke:url(#my-svg-gradient);filter:drop-shadow( 1px 2px 2px rgba(185,185,185,1));}#my-svg [data-look="neo"].swimlane.cluster rect{filter:none;}#my-svg [data-look="neo"].node path{stroke:url(#my-svg-gradient);stroke-width:1px;}#my-svg [data-look="neo"].node .outer-path{filter:drop-shadow( 1px 2px 2px rgba(185,185,185,1));}#my-svg [data-look="neo"].node .neo-line path{stroke:#999;filter:none;}#my-svg [data-look="neo"].node circle{stroke:url(#my-svg-gradient);filter:drop-shadow( 1px 2px 2px rgba(185,185,185,1));}#my-svg [data-look="neo"].node circle .state-start{fill:#000000;}#my-svg [data-look="neo"].icon-shape .icon{fill:url(#my-svg-gradient);filter:drop-shadow( 1px 2px 2px rgba(185,185,185,1));}#my-svg [data-look="neo"].icon-shape .icon-neo path{stroke:url(#my-svg-gradient);filter:drop-shadow( 1px 2px 2px rgba(185,185,185,1));}#my-svg :root{--mermaid-font-family:"trebuchet ms",verdana,arial,sans-serif;}</style><g><marker id="my-svg_flowchart-v2-pointEnd" class="marker flowchart-v2" viewBox="0 0 10 10" refX="5" refY="5" markerUnits="userSpaceOnUse" markerWidth="8" markerHeight="8" orient="auto"><path d="M 0 0 L 10 5 L 0 10 z" class="arrowMarkerPath" style="stroke-width: 1; stroke-dasharray: 1, 0;"/></marker><marker id="my-svg_flowchart-v2-pointStart" class="marker flowchart-v2" viewBox="0 0 10 10" refX="4.5" refY="5" markerUnits="userSpaceOnUse" markerWidth="8" markerHeight="8" orient="auto"><path d="M 0 5 L 10 10 L 10 0 z" class="arrowMarkerPath" style="stroke-width: 1; stroke-dasharray: 1, 0;"/></marker><marker id="my-svg_flowchart-v2-pointEnd-margin" class="marker flowchart-v2" viewBox="0 0 11.5 14" refX="11.5" refY="7" markerUnits="userSpaceOnUse" markerWidth="10.5" markerHeight="14" orient="auto"><path d="M 0 0 L 11.5 7 L 0 14 z" class="arrowMarkerPath" style="stroke-width: 0; stroke-dasharray: 1, 0;"/></marker><marker id="my-svg_flowchart-v2-pointStart-margin" class="marker flowchart-v2" viewBox="0 0 11.5 14" refX="1" refY="7" markerUnits="userSpaceOnUse" markerWidth="11.5" markerHeight="14" orient="auto"><polygon points="0,7 11.5,14 11.5,0" class="arrowMarkerPath" style="stroke-width: 0; stroke-dasharray: 1, 0;"/></marker><marker id="my-svg_flowchart-v2-circleEnd" class="marker flowchart-v2" viewBox="0 0 10 10" refX="11" refY="5" markerUnits="userSpaceOnUse" markerWidth="11" markerHeight="11" orient="auto"><circle cx="5" cy="5" r="5" class="arrowMarkerPath" style="stroke-width: 1; stroke-dasharray: 1, 0;"/></marker><marker id="my-svg_flowchart-v2-circleStart" class="marker flowchart-v2" viewBox="0 0 10 10" refX="-1" refY="5" markerUnits="userSpaceOnUse" markerWidth="11" markerHeight="11" orient="auto"><circle cx="5" cy="5" r="5" class="arrowMarkerPath" style="stroke-width: 1; stroke-dasharray: 1, 0;"/></marker><marker id="my-svg_flowchart-v2-circleEnd-margin" class="marker flowchart-v2" viewBox="0 0 10 10" refY="5" refX="12.25" markerUnits="userSpaceOnUse" markerWidth="14" markerHeight="14" orient="auto"><circle cx="5" cy="5" r="5" class="arrowMarkerPath" style="stroke-width: 0; stroke-dasharray: 1, 0;"/></marker><marker id="my-svg_flowchart-v2-circleStart-margin" class="marker flowchart-v2" viewBox="0 0 10 10" refX="-2" refY="5" markerUnits="userSpaceOnUse" markerWidth="14" markerHeight="14" orient="auto"><circle cx="5" cy="5" r="5" class="arrowMarkerPath" style="stroke-width: 0; stroke-dasharray: 1, 0;"/></marker><marker id="my-svg_flowchart-v2-crossEnd" class="marker cross flowchart-v2" viewBox="0 0 11 11" refX="12" refY="5.2" markerUnits="userSpaceOnUse" markerWidth="11" markerHeight="11" orient="auto"><path d="M 1,1 l 9,9 M 10,1 l -9,9" class="arrowMarkerPath" style="stroke-width: 2; stroke-dasharray: 1, 0;"/></marker><marker id="my-svg_flowchart-v2-crossStart" class="marker cross flowchart-v2" viewBox="0 0 11 11" refX="-1" refY="5.2" markerUnits="userSpaceOnUse" markerWidth="11" markerHeight="11" orient="auto"><path d="M 1,1 l 9,9 M 10,1 l -9,9" class="arrowMarkerPath" style="stroke-width: 2; stroke-dasharray: 1, 0;"/></marker><marker id="my-svg_flowchart-v2-crossEnd-margin" class="marker cross flowchart-v2" viewBox="0 0 15 15" refX="17.7" refY="7.5" markerUnits="userSpaceOnUse" markerWidth="12" markerHeight="12" orient="auto"><path d="M 1,1 L 14,14 M 1,14 L 14,1" class="arrowMarkerPath" style="stroke-width: 2.5;"/></marker><marker id="my-svg_flowchart-v2-crossStart-margin" class="marker cross flowchart-v2" viewBox="0 0 15 15" refX="-3.5" refY="7.5" markerUnits="userSpaceOnUse" markerWidth="12" markerHeight="12" orient="auto"><path d="M 1,1 L 14,14 M 1,14 L 14,1" class="arrowMarkerPath" style="stroke-width: 2.5; stroke-dasharray: 1, 0;"/></marker><g class="root"><g class="clusters"><g class="cluster" id="my-svg-am" data-look="classic"><rect style="" x="1358.533432006836" y="8" width="272.828125" height="124"/><g class="cluster-label" transform="translate(1406.025619506836, 8)"><foreignObject width="177.84375" height="24"><div xmlns="http://www.w3.org/1999/xhtml" style="display: table-cell; white-space: nowrap; line-height: 1.5;"><span class="nodeLabel"><p>Alertmanager clusters</p></span></div></foreignObject></g></g><g class="cluster" id="my-svg-pg" data-look="classic"><rect style="" x="1358.533432006836" y="152" width="733.265625" height="724.8529357910156"/><g class="cluster-label" transform="translate(1679.478744506836, 152)"><foreignObject width="91.375" height="24"><div xmlns="http://www.w3.org/1999/xhtml" style="display: table-cell; white-space: nowrap; line-height: 1.5;"><span class="nodeLabel"><p>PostgreSQL</p></span></div></foreignObject></g></g><g class="cluster" id="my-svg-followerPod" data-look="classic"><rect style="" x="1358.533432006836" y="896.8529357910156" width="1573.5" height="387.5"/><g class="cluster-label" transform="translate(2077.845932006836, 896.8529357910156)"><foreignObject width="134.875" height="24"><div xmlns="http://www.w3.org/1999/xhtml" style="display: table-cell; white-space: nowrap; line-height: 1.5;"><span class="nodeLabel"><p>Pod B — follower</p></span></div></foreignObject></g></g><g class="cluster" id="my-svg-leaderPod" data-look="classic"><rect style="" x="8" y="19" width="1100.533432006836" height="827.8529357910156"/><g class="cluster-label" transform="translate(497.31359100341797, 19)"><foreignObject width="121.90625" height="24"><div xmlns="http://www.w3.org/1999/xhtml" style="display: table-cell; white-space: nowrap; line-height: 1.5;"><span class="nodeLabel"><p>Pod A — leader</p></span></div></foreignObject></g></g><g class="cluster" id="my-svg-clients" data-look="classic"><rect style="" x="238.1484375" y="1107.8529357910156" width="203.984375" height="171.5"/><g class="cluster-label" transform="translate(242.1484375, 1107.8529357910156)"><foreignObject width="195.984375" height="24"><div xmlns="http://www.w3.org/1999/xhtml" style="display: table-cell; white-space: nowrap; line-height: 1.5;"><span class="nodeLabel"><p>Browsers — N open tabs</p></span></div></foreignObject></g></g></g><g class="edgePaths"><path d="M386.551,1187.103L394.644,1182.395C402.737,1177.686,418.923,1168.27,439.377,1163.561C459.831,1158.853,484.552,1158.853,508.69,1158.932C532.828,1159.011,556.383,1159.168,568.16,1159.247L579.938,1159.326" id="my-svg-L_UI_LB_0" class="edge-thickness-normal edge-pattern-solid edge-thickness-normal edge-pattern-solid flowchart-link" style=";" data-edge="true" data-et="edge" data-id="L_UI_LB_0" data-points="W3sieCI6Mzg2LjU1MDY5Mjg3MzMwMzE1LCJ5IjoxMTg3LjEwMjkzNTc5MTAxNTZ9LHsieCI6NDM1LjEwOTM3NSwieSI6MTE1OC44NTI5MzU3OTEwMTU2fSx7IngiOjUwOS4yNzM0Mzc1LCJ5IjoxMTU4Ljg1MjkzNTc5MTAxNTZ9LHsieCI6NTgzLjkzNzUwMDAwMDAzOTksInkiOjExNTkuMzUyOTM1NzkxMDE1Nn1d" data-look="classic" marker-end="url(#my-svg_flowchart-v2-pointEnd)"/><path d="M156.391,414.426L163.789,414.426C171.188,414.426,185.984,414.426,200.781,414.426C215.578,414.426,230.375,414.426,252.989,542.544C275.602,670.661,306.032,926.896,321.247,1055.013L336.462,1183.131" id="my-svg-L_LHUB_UI_0" class="edge-thickness-normal edge-pattern-dotted edge-thickness-normal edge-pattern-solid flowchart-link" style=";" data-edge="true" data-et="edge" data-id="L_LHUB_UI_0" data-points="W3sieCI6MTU2LjM5MDYyNSwieSI6NDE0LjQyNjQ2Nzg5NTUwNzh9LHsieCI6MjAwLjc4MTI1LCJ5Ijo0MTQuNDI2NDY3ODk1NTA3OH0seyJ4IjoyNDUuMTcxODc1LCJ5Ijo0MTQuNDI2NDY3ODk1NTA3OH0seyJ4IjozMzYuOTM0MTMyOTMzNTkyMTQsInkiOjExODcuMTAyOTM1NzkxMDE1Nn1d" data-look="classic" marker-end="url(#my-svg_flowchart-v2-pointEnd)"/><path d="M2810.93,1117.853L2785.549,1137.77C2760.168,1157.686,2709.405,1197.52,2647.204,1217.436C2585.002,1237.353,2511.362,1237.353,2437.721,1237.353C2364.08,1237.353,2290.44,1237.353,2232.786,1237.353C2175.132,1237.353,2133.466,1237.353,2086.799,1237.353C2040.132,1237.353,1988.466,1237.353,1926.346,1237.353C1864.226,1237.353,1791.653,1237.353,1740.747,1237.353C1689.841,1237.353,1660.601,1237.353,1623.246,1237.353C1585.89,1237.353,1540.419,1237.353,1494.947,1237.353C1449.476,1237.353,1404.005,1237.353,1360.436,1237.353C1316.867,1237.353,1275.2,1237.353,1233.533,1237.353C1191.867,1237.353,1150.2,1237.353,1107.418,1237.353C1064.635,1237.353,1020.737,1237.353,976.838,1237.353C932.94,1237.353,889.041,1237.353,843.2,1237.353C797.359,1237.353,749.574,1237.353,693.596,1237.353C637.618,1237.353,573.446,1237.353,528.999,1237.353C484.552,1237.353,459.831,1237.353,443.951,1236.491C428.071,1235.63,421.033,1233.907,417.514,1233.045L413.995,1232.184" id="my-svg-L_FHUB_UI_0" class="edge-thickness-normal edge-pattern-dotted edge-thickness-normal edge-pattern-solid flowchart-link" style=";" data-edge="true" data-et="edge" data-id="L_FHUB_UI_0" data-points="W3sieCI6MjgxMC45MzAxMDk2OTQ1NDksInkiOjExMTcuODUyOTM1NzkxMDE1Nn0seyJ4IjoyNjU4LjY0MjgwNzAwNjgzNiwieSI6MTIzNy4zNTI5MzU3OTEwMTU2fSx7IngiOjI0MzcuNzIwOTMyMDA2ODM2LCJ5IjoxMjM3LjM1MjkzNTc5MTAxNTZ9LHsieCI6MjIxNi43OTkwNTcwMDY4MzYsInkiOjEyMzcuMzUyOTM1NzkxMDE1Nn0seyJ4IjoyMDkxLjc5OTA1NzAwNjgzNiwieSI6MTIzNy4zNTI5MzU3OTEwMTU2fSx7IngiOjE5MzYuNzk5MDU3MDA2ODM2LCJ5IjoxMjM3LjM1MjkzNTc5MTAxNTZ9LHsieCI6MTcxOS4wODAzMDcwMDY4MzYsInkiOjEyMzcuMzUyOTM1NzkxMDE1Nn0seyJ4IjoxNjMxLjM2MTU1NzAwNjgzNiwieSI6MTIzNy4zNTI5MzU3OTEwMTU2fSx7IngiOjE0OTQuOTQ3NDk0NTA2ODM2LCJ5IjoxMjM3LjM1MjkzNTc5MTAxNTZ9LHsieCI6MTM1OC41MzM0MzIwMDY4MzYsInkiOjEyMzcuMzUyOTM1NzkxMDE1Nn0seyJ4IjoxMjMzLjUzMzQzMjAwNjgzNiwieSI6MTIzNy4zNTI5MzU3OTEwMTU2fSx7IngiOjExMDguNTMzNDMyMDA2ODM2LCJ5IjoxMjM3LjM1MjkzNTc5MTAxNTZ9LHsieCI6OTc2LjgzODExOTUwNjgzNTksInkiOjEyMzcuMzUyOTM1NzkxMDE1Nn0seyJ4Ijo4NDUuMTQyODA3MDA2ODM1OSwieSI6MTIzNy4zNTI5MzU3OTEwMTU2fSx7IngiOjcwMS43OTAxNTM1MDM0MTgsInkiOjEyMzcuMzUyOTM1NzkxMDE1Nn0seyJ4Ijo1MDkuMjczNDM3NSwieSI6MTIzNy4zNTI5MzU3OTEwMTU2fSx7IngiOjQzNS4xMDkzNzUsInkiOjEyMzcuMzUyOTM1NzkxMDE1Nn0seyJ4Ijo0MTAuMTA5Mzc1LCJ5IjoxMjMxLjIzMjUwMTQzNzYxfV0=" data-look="classic" marker-end="url(#my-svg_flowchart-v2-pointEnd)"/><path d="M1083.533,668.853L1087.7,668.853C1091.867,668.853,1100.2,668.853,1125.2,668.853C1150.2,668.853,1191.867,668.853,1233.533,668.853C1275.2,668.853,1316.867,668.853,1360.436,668.853C1404.005,668.853,1449.476,668.853,1494.947,668.853C1540.419,668.853,1585.89,668.853,1623.246,668.853C1660.601,668.853,1689.841,668.853,1721.185,673.001C1752.528,677.149,1785.976,685.445,1802.7,689.593L1819.425,693.741" id="my-svg-L_LEL_LOCK_0" class="edge-thickness-thick edge-pattern-solid edge-thickness-normal edge-pattern-solid flowchart-link" style=";" data-edge="true" data-et="edge" data-id="L_LEL_LOCK_0" data-points="W3sieCI6MTA4My41MzM0MzIwMDY4MzYsInkiOjY2OC44NTI5MzU3OTEwMTU2fSx7IngiOjExMDguNTMzNDMyMDA2ODM2LCJ5Ijo2NjguODUyOTM1NzkxMDE1Nn0seyJ4IjoxMjMzLjUzMzQzMjAwNjgzNiwieSI6NjY4Ljg1MjkzNTc5MTAxNTZ9LHsieCI6MTM1OC41MzM0MzIwMDY4MzYsInkiOjY2OC44NTI5MzU3OTEwMTU2fSx7IngiOjE0OTQuOTQ3NDk0NTA2ODM2LCJ5Ijo2NjguODUyOTM1NzkxMDE1Nn0seyJ4IjoxNjMxLjM2MTU1NzAwNjgzNiwieSI6NjY4Ljg1MjkzNTc5MTAxNTZ9LHsieCI6MTcxOS4wODAzMDcwMDY4MzYsInkiOjY2OC44NTI5MzU3OTEwMTU2fSx7IngiOjE4MjMuMzA2ODY5NTA2ODM2LCJ5Ijo2OTQuNzAzODc1OTM3NDIwMX1d" data-look="classic" marker-end="url(#my-svg_flowchart-v2-pointEnd)"/><path d="M1606.362,1037.853L1610.528,1037.853C1614.695,1037.853,1623.028,1037.853,1641.815,1037.853C1660.601,1037.853,1689.841,1037.853,1735.875,992.401C1781.91,946.95,1844.739,856.047,1876.154,810.595L1907.569,765.143" id="my-svg-L_FEL_LOCK_0" class="edge-thickness-normal edge-pattern-dotted edge-thickness-normal edge-pattern-solid flowchart-link" style=";" data-edge="true" data-et="edge" data-id="L_FEL_LOCK_0" data-points="W3sieCI6MTYwNi4zNjE1NTcwMDY4MzYsInkiOjEwMzcuODUyOTM1NzkxMDE1Nn0seyJ4IjoxNjMxLjM2MTU1NzAwNjgzNiwieSI6MTAzNy44NTI5MzU3OTEwMTU2fSx7IngiOjE3MTkuMDgwMzA3MDA2ODM2LCJ5IjoxMDM3Ljg1MjkzNTc5MTAxNTZ9LHsieCI6MTkwOS44NDM0MDIyNDQ5MzEyLCJ5Ijo3NjEuODUyOTM1NzkxMDE1Nn1d" data-look="classic" marker-end="url(#my-svg_flowchart-v2-pointEnd)"/><path d="M998.841,264.426L1017.123,232.022C1035.405,199.618,1071.969,134.809,1111.085,102.404C1150.2,70,1191.867,70,1233.533,70C1275.2,70,1316.867,70,1346.919,70C1376.971,70,1395.408,70,1404.627,70L1413.846,70" id="my-svg-L_LREC_AM_0" class="edge-thickness-thick edge-pattern-solid edge-thickness-normal edge-pattern-solid flowchart-link" style=";" data-edge="true" data-et="edge" data-id="L_LREC_AM_0" data-points="W3sieCI6OTk4Ljg0MTI2Nzc5NTA1NDcsInkiOjI2NC40MjY0Njc4OTU1MDc4fSx7IngiOjExMDguNTMzNDMyMDA2ODM2LCJ5Ijo3MH0seyJ4IjoxMjMzLjUzMzQzMjAwNjgzNiwieSI6NzB9LHsieCI6MTM1OC41MzM0MzIwMDY4MzYsInkiOjcwfSx7IngiOjE0MTcuODQ1OTMyMDA2ODM2LCJ5Ijo3MH1d" data-look="classic" marker-end="url(#my-svg_flowchart-v2-pointEnd)"/><path d="M1053.33,274.842L1062.531,271.404C1071.731,267.966,1090.132,261.09,1120.166,257.651C1150.2,254.213,1191.867,254.213,1233.533,254.213C1275.2,254.213,1316.867,254.213,1341.852,254.213C1366.838,254.213,1375.143,254.213,1379.295,254.213L1383.447,254.213" id="my-svg-L_LREC_HIST_0" class="edge-thickness-normal edge-pattern-solid edge-thickness-normal edge-pattern-solid flowchart-link" style=";" data-edge="true" data-et="edge" data-id="L_LREC_HIST_0" data-points="W3sieCI6MTA1My4zMzAzMDcwMDY4MzYsInkiOjI3NC44NDIwOTUwMTg4MTIyfSx7IngiOjExMDguNTMzNDMyMDA2ODM2LCJ5IjoyNTQuMjEzMjMzOTQ3NzUzOX0seyJ4IjoxMjMzLjUzMzQzMjAwNjgzNiwieSI6MjU0LjIxMzIzMzk0Nzc1Mzl9LHsieCI6MTM1OC41MzM0MzIwMDY4MzYsInkiOjI1NC4yMTMyMzM5NDc3NTM5fSx7IngiOjEzODcuNDQ3NDk0NTA2ODM2LCJ5IjoyNTQuMjEzMjMzOTQ3NzUzOX1d" data-look="classic" marker-end="url(#my-svg_flowchart-v2-pointEnd)"/><path d="M1014.823,342.426L1030.442,358.462C1046.06,374.498,1077.297,406.569,1113.748,422.604C1150.2,438.64,1191.867,438.64,1233.533,438.64C1275.2,438.64,1316.867,438.64,1341.852,438.64C1366.838,438.64,1375.143,438.64,1379.295,438.64L1383.447,438.64" id="my-svg-L_LREC_SNAP_0" class="edge-thickness-normal edge-pattern-solid edge-thickness-normal edge-pattern-solid flowchart-link" style=";" data-edge="true" data-et="edge" data-id="L_LREC_SNAP_0" data-points="W3sieCI6MTAxNC44MjM0MzM3OTU1NTg1LCJ5IjozNDIuNDI2NDY3ODk1NTA3OH0seyJ4IjoxMTA4LjUzMzQzMjAwNjgzNiwieSI6NDM4LjYzOTcwMTg0MzI2MTd9LHsieCI6MTIzMy41MzM0MzIwMDY4MzYsInkiOjQzOC42Mzk3MDE4NDMyNjE3fSx7IngiOjEzNTguNTMzNDMyMDA2ODM2LCJ5Ijo0MzguNjM5NzAxODQzMjYxN30seyJ4IjoxMzg3LjQ0NzQ5NDUwNjgzNiwieSI6NDM4LjYzOTcwMTg0MzI2MTd9XQ==" data-look="classic" marker-end="url(#my-svg_flowchart-v2-pointEnd)"/><path d="M1602.447,438.64L1607.267,438.64C1612.086,438.64,1621.724,438.64,1641.162,438.64C1660.601,438.64,1689.841,438.64,1722.887,449.829C1755.932,461.019,1792.784,483.398,1811.21,494.587L1829.636,505.777" id="my-svg-L_SNAP_NOTIFY_0" class="edge-thickness-normal edge-pattern-dotted edge-thickness-normal edge-pattern-solid flowchart-link" style=";" data-edge="true" data-et="edge" data-id="L_SNAP_NOTIFY_0" data-points="W3sieCI6MTYwMi40NDc0OTQ1MDY4MzYsInkiOjQzOC42Mzk3MDE4NDMyNjE3fSx7IngiOjE2MzEuMzYxNTU3MDA2ODM2LCJ5Ijo0MzguNjM5NzAxODQzMjYxN30seyJ4IjoxNzE5LjA4MDMwNzAwNjgzNiwieSI6NDM4LjYzOTcwMTg0MzI2MTd9LHsieCI6MTgzMy4wNTU0MjM3ODMwOTg0LCJ5Ijo1MDcuODUyOTM1NzkxMDE1Nn1d" data-look="classic" marker-end="url(#my-svg_flowchart-v2-pointEnd)"/><path d="M2341.799,1066.538L2320.966,1061.257C2300.132,1055.977,2258.466,1045.415,2216.799,983.634C2175.132,921.853,2133.466,808.853,2100.338,742.438C2067.21,676.023,2042.621,656.194,2030.327,646.279L2018.033,636.364" id="my-svg-L_FREC_NOTIFY_0" class="edge-thickness-normal edge-pattern-solid edge-thickness-normal edge-pattern-solid flowchart-link" style=";" data-edge="true" data-et="edge" data-id="L_FREC_NOTIFY_0" data-points="W3sieCI6MjM0MS43OTkwNTcwMDY4MzYsInkiOjEwNjYuNTM4MzQ0OTQzMDA2N30seyJ4IjoyMjE2Ljc5OTA1NzAwNjgzNiwieSI6MTAzNC44NTI5MzU3OTEwMTU2fSx7IngiOjIwOTEuNzk5MDU3MDA2ODM2LCJ5Ijo2OTUuODUyOTM1NzkxMDE1Nn0seyJ4IjoyMDE0LjkxOTA1NzAwNjgzNTgsInkiOjYzMy44NTI5MzU3OTEwMTU2fV0=" data-look="classic" marker-end="url(#my-svg_flowchart-v2-pointEnd)"/><path d="M1973.574,507.853L1993.278,474.097C2012.982,440.342,2052.391,372.831,2092.928,443.831C2133.466,514.831,2175.132,724.342,2223.096,848.378C2271.06,972.414,2325.321,1010.975,2352.451,1030.255L2379.582,1049.536" id="my-svg-L_NOTIFY_FREC_0" class="edge-thickness-normal edge-pattern-dotted edge-thickness-normal edge-pattern-solid flowchart-link" style=";" data-edge="true" data-et="edge" data-id="L_NOTIFY_FREC_0" data-points="W3sieCI6MTk3My41NzQxMzUzNTQ2MTg0LCJ5Ijo1MDcuODUyOTM1NzkxMDE1Nn0seyJ4IjoyMDkxLjc5OTA1NzAwNjgzNiwieSI6MzA1LjMxOTg1MDkyMTYzMDg2fSx7IngiOjIyMTYuNzk5MDU3MDA2ODM2LCJ5Ijo5MzMuODUyOTM1NzkxMDE1Nn0seyJ4IjoyMzgyLjg0MjI0OTY4MTk5NTMsInkiOjEwNTEuODUyOTM1NzkxMDE1Nn1d" data-look="classic" marker-end="url(#my-svg_flowchart-v2-pointEnd)"/><path d="M2533.643,1090.853L2554.476,1090.853C2575.309,1090.853,2616.976,1090.853,2657.976,1090.853C2698.976,1090.853,2739.309,1090.853,2759.476,1090.853L2779.643,1090.853" id="my-svg-L_FREC_FHUB_0" class="edge-thickness-normal edge-pattern-solid edge-thickness-normal edge-pattern-solid flowchart-link" style=";" data-edge="true" data-et="edge" data-id="L_FREC_FHUB_0" data-points="W3sieCI6MjUzMy42NDI4MDcwMDY4MzYsInkiOjEwOTAuODUyOTM1NzkxMDE1Nn0seyJ4IjoyNjU4LjY0MjgwNzAwNjgzNiwieSI6MTA5MC44NTI5MzU3OTEwMTU2fSx7IngiOjI3ODMuNjQyODA3MDA2ODM2LCJ5IjoxMDkwLjg1MjkzNTc5MTAxNTZ9XQ==" data-look="classic" marker-end="url(#my-svg_flowchart-v2-pointEnd)"/><path d="M2341.799,1101.273L2320.966,1103.537C2300.132,1105.8,2258.466,1110.326,2216.799,1046.09C2175.132,981.853,2133.466,848.853,2098.51,769.142C2063.554,689.43,2035.31,663.008,2021.187,649.797L2007.065,636.586" id="my-svg-L_FREC_NOTIFY_2" class="edge-thickness-normal edge-pattern-dotted edge-thickness-normal edge-pattern-solid flowchart-link" style=";" data-edge="true" data-et="edge" data-id="L_FREC_NOTIFY_2" data-points="W3sieCI6MjM0MS43OTkwNTcwMDY4MzYsInkiOjExMDEuMjczNDc0NzI1ODc2N30seyJ4IjoyMjE2Ljc5OTA1NzAwNjgzNiwieSI6MTExNC44NTI5MzU3OTEwMTU2fSx7IngiOjIwOTEuNzk5MDU3MDA2ODM2LCJ5Ijo3MTUuODUyOTM1NzkxMDE1Nn0seyJ4IjoyMDA0LjE0Mzg4NDU5MzA0MywieSI6NjMzLjg1MjkzNTc5MTAxNTZ9XQ==" data-look="classic" marker-end="url(#my-svg_flowchart-v2-pointEnd)"/><path d="M1806.799,567.27L1792.179,566.867C1777.559,566.465,1748.32,565.659,1719.08,565.256C1689.841,564.853,1660.601,564.853,1623.246,564.853C1585.89,564.853,1540.419,564.853,1494.947,564.853C1449.476,564.853,1404.005,564.853,1360.436,564.853C1316.867,564.853,1275.2,564.853,1233.533,564.853C1191.867,564.853,1150.2,564.853,1110.992,528.377C1071.784,491.902,1035.034,418.95,1016.659,382.474L998.284,345.999" id="my-svg-L_NOTIFY_LREC_0" class="edge-thickness-normal edge-pattern-dotted edge-thickness-normal edge-pattern-solid flowchart-link" style=";" data-edge="true" data-et="edge" data-id="L_NOTIFY_LREC_0" data-points="W3sieCI6MTgwNi43OTkwNTcwMDY4MzYsInkiOjU2Ny4yNzAzMzIwODc4NDM1fSx7IngiOjE3MTkuMDgwMzA3MDA2ODM2LCJ5Ijo1NjQuODUyOTM1NzkxMDE1Nn0seyJ4IjoxNjMxLjM2MTU1NzAwNjgzNiwieSI6NTY0Ljg1MjkzNTc5MTAxNTZ9LHsieCI6MTQ5NC45NDc0OTQ1MDY4MzYsInkiOjU2NC44NTI5MzU3OTEwMTU2fSx7IngiOjEzNTguNTMzNDMyMDA2ODM2LCJ5Ijo1NjQuODUyOTM1NzkxMDE1Nn0seyJ4IjoxMjMzLjUzMzQzMjAwNjgzNiwieSI6NTY0Ljg1MjkzNTc5MTAxNTZ9LHsieCI6MTEwOC41MzM0MzIwMDY4MzYsInkiOjU2NC44NTI5MzU3OTEwMTU2fSx7IngiOjk5Ni40ODQ2Mjc0ODYxMDAzLCJ5IjozNDIuNDI2NDY3ODk1NTA3OH1d" data-look="classic" marker-end="url(#my-svg_flowchart-v2-pointEnd)"/><path d="M1033.783,784.853L1046.242,784.853C1058.7,784.853,1083.617,784.853,1116.908,784.853C1150.2,784.853,1191.867,784.853,1233.533,784.853C1275.2,784.853,1316.867,784.853,1360.436,784.853C1404.005,784.853,1449.476,784.853,1494.947,784.853C1540.419,784.853,1585.89,784.853,1623.246,784.853C1660.601,784.853,1689.841,784.853,1729.589,760.154C1769.337,735.454,1819.595,686.056,1844.723,661.356L1869.852,636.657" id="my-svg-L_LFAN_NOTIFY_0" class="edge-thickness-normal edge-pattern-solid edge-thickness-normal edge-pattern-solid flowchart-link" style=";" data-edge="true" data-et="edge" data-id="L_LFAN_NOTIFY_0" data-points="W3sieCI6MTAzMy43ODM0MzIwMDY4MzYsInkiOjc4NC44NTI5MzU3OTEwMTU2fSx7IngiOjExMDguNTMzNDMyMDA2ODM2LCJ5Ijo3ODQuODUyOTM1NzkxMDE1Nn0seyJ4IjoxMjMzLjUzMzQzMjAwNjgzNiwieSI6Nzg0Ljg1MjkzNTc5MTAxNTZ9LHsieCI6MTM1OC41MzM0MzIwMDY4MzYsInkiOjc4NC44NTI5MzU3OTEwMTU2fSx7IngiOjE0OTQuOTQ3NDk0NTA2ODM2LCJ5Ijo3ODQuODUyOTM1NzkxMDE1Nn0seyJ4IjoxNjMxLjM2MTU1NzAwNjgzNiwieSI6Nzg0Ljg1MjkzNTc5MTAxNTZ9LHsieCI6MTcxOS4wODAzMDcwMDY4MzYsInkiOjc4NC44NTI5MzU3OTEwMTU2fSx7IngiOjE4NzIuNzA0Mjg0ODEwNTc0MywieSI6NjMzLjg1MjkzNTc5MTAxNTZ9XQ==" data-look="classic" marker-end="url(#my-svg_flowchart-v2-pointEnd)"/><path d="M1976.57,507.853L1995.775,477.431C2014.979,447.009,2053.389,386.164,2093.427,462.331C2133.466,538.498,2175.132,751.675,2222.629,857.54C2270.125,963.405,2323.451,961.956,2350.114,961.232L2376.777,960.508" id="my-svg-L_NOTIFY_FFAN_0" class="edge-thickness-normal edge-pattern-dotted edge-thickness-normal edge-pattern-solid flowchart-link" style=";" data-edge="true" data-et="edge" data-id="L_NOTIFY_FFAN_0" data-points="W3sieCI6MTk3Ni41Njk2NjQ3MjQzMDM3LCJ5Ijo1MDcuODUyOTM1NzkxMDE1Nn0seyJ4IjoyMDkxLjc5OTA1NzAwNjgzNiwieSI6MzI1LjMxOTg1MDkyMTYzMDg2fSx7IngiOjIyMTYuNzk5MDU3MDA2ODM2LCJ5Ijo5NjQuODUyOTM1NzkxMDE1Nn0seyJ4IjoyMzgwLjc3NTYxOTUwNjgzNiwieSI6OTYwLjM5OTUwOTA5ODg4NzV9XQ==" data-look="classic" marker-end="url(#my-svg_flowchart-v2-pointEnd)"/><path d="M2494.666,958.853L2521.996,958.853C2549.325,958.853,2603.984,958.853,2655.52,975.968C2707.057,993.083,2755.47,1027.313,2779.677,1044.429L2803.884,1061.544" id="my-svg-L_FFAN_FHUB_0" class="edge-thickness-normal edge-pattern-solid edge-thickness-normal edge-pattern-solid flowchart-link" style=";" data-edge="true" data-et="edge" data-id="L_FFAN_FHUB_0" data-points="W3sieCI6MjQ5NC42NjYyNDQ1MDY4MzYsInkiOjk1OC44NTI5MzU3OTEwMTU2fSx7IngiOjI2NTguNjQyODA3MDA2ODM2LCJ5Ijo5NTguODUyOTM1NzkxMDE1Nn0seyJ4IjoyODA3LjE1MDQ0MTk1MDAxOCwieSI6MTA2My44NTI5MzU3OTEwMTU2fV0=" data-look="classic" marker-end="url(#my-svg_flowchart-v2-pointEnd)"/><path d="M709.08,1115.353L753.414,850.798" id="my-svg-L_LB_leaderPod_0" class="edge-thickness-normal edge-pattern-dotted edge-thickness-normal edge-pattern-solid flowchart-link" style=";" data-edge="true" data-et="edge" data-id="L_LB_leaderPod_0" data-points="W3sieCI6NzA5LjU3OTg5ODA0NzcyNjgsInkiOjExMTUuODUyOTM1NzkxMDE1Nn0seyJ4Ijo4NDUuMTQyODA3MDA2ODM1OSwieSI6MzAzLjQyNjQ2Nzg5NTUwNzh9LHsieCI6OTAwLjM0NTkzMjAwNjgzNTksInkiOjMwMy40MjY0Njc4OTU1MDc4fV0=" data-look="classic" marker-end="url(#my-svg_flowchart-v2-pointEnd)"/><path d="M820.143,1158.853L824.309,1158.853C828.476,1158.853,836.809,1158.853,862.925,1158.853C889.041,1158.853,932.94,1158.853,976.838,1158.853C1020.737,1158.853,1064.635,1158.853,1107.418,1158.853C1150.2,1158.853,1191.867,1158.853,1232.867,1158.853C1273.867,1158.853,1314.2,1158.853,1334.367,1158.853L1354.533,1158.853" id="my-svg-L_LB_followerPod_0" class="edge-thickness-normal edge-pattern-dotted edge-thickness-normal edge-pattern-solid flowchart-link" style=";" data-edge="true" data-et="edge" data-id="L_LB_followerPod_0" data-points="W3sieCI6ODIwLjY0MjgwMDgwOTQ0NDgsInkiOjExNTkuMzUyOTM1NzkxMDE1Nn0seyJ4Ijo4NDUuMTQyODA3MDA2ODM1OSwieSI6MTE1OC44NTI5MzU3OTEwMTU2fSx7IngiOjk3Ni44MzgxMTk1MDY4MzU5LCJ5IjoxMTU4Ljg1MjkzNTc5MTAxNTZ9LHsieCI6MTEwOC41MzM0MzIwMDY4MzYsInkiOjExNTguODUyOTM1NzkxMDE1Nn0seyJ4IjoxMjMzLjUzMzQzMjAwNjgzNiwieSI6MTE1OC44NTI5MzU3OTEwMTU2fSx7IngiOjEzNTguNTMzNDMyMDA2ODM2LCJ5IjoxMTU4Ljg1MjkzNTc5MTAxNTZ9LHsieCI6MTQ5NC45NDc0OTQ1MDY4MzYsInkiOjExNTguODUyOTM1NzkxMDE1Nn0seyJ4IjoxNjMxLjM2MTU1NzAwNjgzNiwieSI6MTE1OC44NTI5MzU3OTEwMTU2fSx7IngiOjE3MTkuMDgwMzA3MDA2ODM2LCJ5IjoxMTU4Ljg1MjkzNTc5MTAxNTZ9LHsieCI6MTkzNi43OTkwNTcwMDY4MzYsInkiOjExNTguODUyOTM1NzkxMDE1Nn0seyJ4IjoyMDkxLjc5OTA1NzAwNjgzNiwieSI6MTE1OC44NTI5MzU3OTEwMTU2fSx7IngiOjIyMTYuNzk5MDU3MDA2ODM2LCJ5IjoxMTU4Ljg1MjkzNTc5MTAxNTZ9LHsieCI6MjM0MS43OTkwNTcwMDY4MzYsInkiOjExMjAuMzc3Nzk2MTA2NDU1Mn1d" data-look="classic" marker-end="url(#my-svg_flowchart-v2-pointEnd)"/></g><g class="edgeLabels"><g class="edgeLabel" transform="translate(509.2734375, 1158.8529357910156)"><g class="label" data-id="L_UI_LB_0" transform="translate(-49.1640625, -12)"><foreignObject width="98.328125" height="24"><div xmlns="http://www.w3.org/1999/xhtml" class="labelBkg" style="display: table-cell; white-space: nowrap; line-height: 1.5; max-width: 200px; text-align: center;"><span class="edgeLabel"><p>reads/writes</p></span></div></foreignObject></g></g><g class="edgeLabel" transform="translate(200.78125, 414.4264678955078)"><g class="label" data-id="L_LHUB_UI_0" transform="translate(-19.390625, -12)"><foreignObject width="38.78125" height="24"><div xmlns="http://www.w3.org/1999/xhtml" class="labelBkg" style="display: table-cell; white-space: nowrap; line-height: 1.5; max-width: 200px; text-align: center;"><span class="edgeLabel"><p>push</p></span></div></foreignObject></g></g><g class="edgeLabel" transform="translate(1494.947494506836, 1237.3529357910156)"><g class="label" data-id="L_FHUB_UI_0" transform="translate(-19.390625, -12)"><foreignObject width="38.78125" height="24"><div xmlns="http://www.w3.org/1999/xhtml" class="labelBkg" style="display: table-cell; white-space: nowrap; line-height: 1.5; max-width: 200px; text-align: center;"><span class="edgeLabel"><p>push</p></span></div></foreignObject></g></g><g class="edgeLabel" transform="translate(1494.947494506836, 668.8529357910156)"><g class="label" data-id="L_LEL_LOCK_0" transform="translate(-21.4375, -12)"><foreignObject width="42.875" height="24"><div xmlns="http://www.w3.org/1999/xhtml" class="labelBkg" style="display: table-cell; white-space: nowrap; line-height: 1.5; max-width: 200px; text-align: center;"><span class="edgeLabel"><p>holds</p></span></div></foreignObject></g></g><g class="edgeLabel" transform="translate(1719.080307006836, 1037.8529357910156)"><g class="label" data-id="L_FEL_LOCK_0" transform="translate(-62.71875, -12)"><foreignObject width="125.4375" height="24"><div xmlns="http://www.w3.org/1999/xhtml" class="labelBkg" style="display: table-cell; white-space: nowrap; line-height: 1.5; max-width: 200px; text-align: center;"><span class="edgeLabel"><p>retries every 5s</p></span></div></foreignObject></g></g><g class="edgeLabel" transform="translate(1233.533432006836, 70)"><g class="label" data-id="L_LREC_AM_0" transform="translate(-100, -24)"><foreignObject width="200" height="48"><div xmlns="http://www.w3.org/1999/xhtml" class="labelBkg" style="display: table; white-space: break-spaces; line-height: 1.5; max-width: 200px; text-align: center; width: 200px;"><span class="edgeLabel"><p>polls, every JARVIS_POLL_INTERVAL</p></span></div></foreignObject></g></g><g class="edgeLabel" transform="translate(1233.533432006836, 254.2132339477539)"><g class="label" data-id="L_LREC_HIST_0" transform="translate(-94.84375, -24)"><foreignObject width="189.6875" height="48"><div xmlns="http://www.w3.org/1999/xhtml" class="labelBkg" style="display: table-cell; white-space: nowrap; line-height: 1.5; max-width: 200px; text-align: center;"><span class="edgeLabel"><p>writes lifecycle events<br />(leader-only, D3 step 4)</p></span></div></foreignObject></g></g><g class="edgeLabel" transform="translate(1233.533432006836, 438.6397018432617)"><g class="label" data-id="L_LREC_SNAP_0" transform="translate(-100, -24)"><foreignObject width="200" height="48"><div xmlns="http://www.w3.org/1999/xhtml" class="labelBkg" style="display: table; white-space: break-spaces; line-height: 1.5; max-width: 200px; text-align: center; width: 200px;"><span class="edgeLabel"><p>persists + NOTIFY jarvis_snapshot</p></span></div></foreignObject></g></g><g class="edgeLabel"><g class="label" data-id="L_SNAP_NOTIFY_0" transform="translate(0, 0)"><foreignObject width="0" height="0"><div xmlns="http://www.w3.org/1999/xhtml" class="labelBkg" style="display: table-cell; white-space: nowrap; line-height: 1.5; max-width: 200px; text-align: center;"><span class="edgeLabel"></span></div></foreignObject></g></g><g class="edgeLabel" transform="translate(2159.52106, 879.515)"><g class="label" data-id="L_FREC_NOTIFY_0" transform="translate(-100, -36)"><foreignObject width="200" height="72"><div xmlns="http://www.w3.org/1999/xhtml" class="labelBkg" style="display: table; white-space: break-spaces; line-height: 1.5; max-width: 200px; text-align: center; width: 200px;"><span class="edgeLabel"><p>LISTEN jarvis_snapshot<br />+ periodic resync fallback</p></span></div></foreignObject></g></g><g class="edgeLabel"><g class="label" data-id="L_NOTIFY_FREC_0" transform="translate(0, 0)"><foreignObject width="0" height="0"><div xmlns="http://www.w3.org/1999/xhtml" class="labelBkg" style="display: table-cell; white-space: nowrap; line-height: 1.5; max-width: 200px; text-align: center;"><span class="edgeLabel"></span></div></foreignObject></g></g><g class="edgeLabel" transform="translate(2658.642807006836, 1090.8529357910156)"><g class="label" data-id="L_FREC_FHUB_0" transform="translate(-92.8671875, -24)"><foreignObject width="185.734375" height="48"><div xmlns="http://www.w3.org/1999/xhtml" class="labelBkg" style="display: table-cell; white-space: nowrap; line-height: 1.5; max-width: 200px; text-align: center;"><span class="edgeLabel"><p>merges into own<br />AlertStore/SilenceStore</p></span></div></foreignObject></g></g><g class="edgeLabel" transform="translate(2155.15175, 918.07474)"><g class="label" data-id="L_FREC_NOTIFY_2" transform="translate(-85.6171875, -24)"><foreignObject width="171.234375" height="48"><div xmlns="http://www.w3.org/1999/xhtml" class="labelBkg" style="display: table-cell; white-space: nowrap; line-height: 1.5; max-width: 200px; text-align: center;"><span class="edgeLabel"><p>Trigger() forwards via<br />NOTIFY jarvis_trigger</p></span></div></foreignObject></g></g><g class="edgeLabel" transform="translate(1494.947494506836, 564.8529357910156)"><g class="label" data-id="L_NOTIFY_LREC_0" transform="translate(-100, -24)"><foreignObject width="200" height="48"><div xmlns="http://www.w3.org/1999/xhtml" class="labelBkg" style="display: table; white-space: break-spaces; line-height: 1.5; max-width: 200px; text-align: center; width: 200px;"><span class="edgeLabel"><p>leader LISTENs, polls immediately</p></span></div></foreignObject></g></g><g class="edgeLabel" transform="translate(1494.947494506836, 784.8529357910156)"><g class="label" data-id="L_LFAN_NOTIFY_0" transform="translate(-78.4453125, -24)"><foreignObject width="156.890625" height="48"><div xmlns="http://www.w3.org/1999/xhtml" class="labelBkg" style="display: table-cell; white-space: nowrap; line-height: 1.5; max-width: 200px; text-align: center;"><span class="edgeLabel"><p>mutation broadcast<br />NOTIFY jarvis_ws</p></span></div></foreignObject></g></g><g class="edgeLabel"><g class="label" data-id="L_NOTIFY_FFAN_0" transform="translate(0, 0)"><foreignObject width="0" height="0"><div xmlns="http://www.w3.org/1999/xhtml" class="labelBkg" style="display: table-cell; white-space: nowrap; line-height: 1.5; max-width: 200px; text-align: center;"><span class="edgeLabel"></span></div></foreignObject></g></g><g class="edgeLabel" transform="translate(2658.642807006836, 958.8529357910156)"><g class="label" data-id="L_FFAN_FHUB_0" transform="translate(-100, -24)"><foreignObject width="200" height="48"><div xmlns="http://www.w3.org/1999/xhtml" class="labelBkg" style="display: table; white-space: break-spaces; line-height: 1.5; max-width: 200px; text-align: center; width: 200px;"><span class="edgeLabel"><p>re-broadcast to own clients</p></span></div></foreignObject></g></g><g class="edgeLabel"><g class="label" data-id="L_LB_leaderPod_0" transform="translate(0, 0)"><foreignObject width="0" height="0"><div xmlns="http://www.w3.org/1999/xhtml" class="labelBkg" style="display: table-cell; white-space: nowrap; line-height: 1.5; max-width: 200px; text-align: center;"><span class="edgeLabel"></span></div></foreignObject></g></g><g class="edgeLabel"><g class="label" data-id="L_LB_followerPod_0" transform="translate(0, 0)"><foreignObject width="0" height="0"><div xmlns="http://www.w3.org/1999/xhtml" class="labelBkg" style="display: table-cell; white-space: nowrap; line-height: 1.5; max-width: 200px; text-align: center;"><span class="edgeLabel"></span></div></foreignObject></g></g></g><g class="nodes"><g class="node default" id="my-svg-flowchart-UI-0" data-look="classic" transform="translate(340.140625, 1214.1029357910156)"><rect class="basic label-container" style="" x="-69.96875" y="-27" width="139.9375" height="54"/><g class="label" style="" transform="translate(-39.96875, -12)"><rect/><foreignObject width="79.9375" height="24"><div xmlns="http://www.w3.org/1999/xhtml" style="display: table-cell; white-space: nowrap; line-height: 1.5; max-width: 200px; text-align: center;"><span class="nodeLabel"><p>React SPA</p></span></div></foreignObject></g></g><g class="node default" id="my-svg-flowchart-LB-1" data-look="classic" transform="translate(701.790153503418, 1158.8529357910156)"><g class="basic label-container outer-path"><path d="M-74.875 -43.5 C-19.771454058699568 -43.5, 35.332091882600864 -43.5, 74.875 -43.5 C74.875 -43.5, 74.875 -43.5, 74.875 -43.5 C75.9793116765916 -43.464586873943986, 77.08362335318321 -43.42917374788797, 77.66205456916101 -43.41062458463963 C78.58977846344024 -43.321128176309735, 79.51750235771947 -43.23163176797984, 80.43765653327601 -43.14286560131121 C81.02245827252462 -43.04831939131471, 81.60726001177323 -42.95377318131822, 83.19040034850968 -42.697823329111344 C84.17079853357448 -42.47405384106636, 85.15119671863928 -42.25028435302137, 85.90897440006356 -42.07732654219778 C86.93607387676451 -41.77248880886811, 87.96317335346546 -41.46765107553844, 88.58220748402749 -41.28392499496409 C89.13342345572589 -41.08107242199449, 89.68463942742427 -40.878219849024894, 91.19911471225277 -40.32087894455194 C92.11103124823865 -39.91720054511391, 93.02294778422454 -39.51352214567587, 93.74894265161377 -39.192145753755234 C94.67190667029132 -38.71063601639783, 95.59487068896887 -38.22912627904042, 96.22121351217129 -37.90236362936744 C97.08418274907143 -37.379226606588425, 97.94715198597159 -36.85608958380941, 98.60576820265887 -36.45683256279507 C99.31567344991379 -35.96163339361289, 100.02557869716871 -35.466434224430714, 100.8928080763679 -34.86149255125611 C101.38188697374186 -34.471465145536435, 101.87096587111581 -34.08143773981676, 103.07293519588879 -33.12289918905735 C103.80077371612275 -32.46189550253283, 104.52861223635671 -31.80089181600832, 105.13719095125165 -31.248196729251152 C105.76309973400829 -30.60189452298817, 106.38900851676493 -29.95559231672519, 107.07709287277622 -29.24508872636729 C107.54002436011874 -28.70130305978692, 108.00295584746125 -28.15751739320655, 108.8846694873593 -27.12180638085491 C109.39965631703765 -26.43177094535126, 109.914643146716 -25.74173550984761, 110.55249307496757 -24.88707471531439 C111.07267403864218 -24.087937066963278, 111.59285500231677 -23.28879941861216, 112.07371019073256 -22.550076721507846 C112.55385734598893 -21.69752682717849, 113.0340045012453 -20.844976932849132, 113.44206982722551 -20.120415625476333 C113.73440859476058 -19.51336791964216, 114.02674736229565 -18.90632021380799, 114.65194910118784 -17.60807542582414 C115.00438370868956 -16.737555131435283, 115.3568183161913 -15.867034837046425, 115.69837635916457 -15.023379867326902 C116.01753280178708 -14.062131512821383, 116.3366892444096 -13.100883158315861, 116.57705160709475 -12.376950018449923 C116.79518559193528 -11.545110594385868, 117.01331957677583 -10.713271170321814, 117.28436417990932 -9.67966062709968 C117.47656655106758 -8.692742073187562, 117.66876892222584 -7.705823519275443, 117.81740757852859 -6.942595433952013 C117.93230948279427 -6.0514389544147456, 118.04721138705996 -5.160282474877479, 118.17399141329012 -4.177001626984165 C118.21107239423989 -3.5994354174624776, 118.24815337518966 -3.0218692079407905, 118.35265040472993 -1.3942436243669998 C118.35265040472993 -0.5944515345811158, 118.35265040472993 0.20534055520476824, 118.35265040472993 1.3942436243669891 C118.30545924839863 2.129283976242732, 118.25826809206733 2.864324328118475, 118.17399141329012 4.177001626984135 C118.10006071237243 4.750393544033694, 118.02613001145471 5.323785461083254, 117.81740757852859 6.942595433951983 C117.62334888776174 7.93904579672094, 117.42929019699488 8.935496159489897, 117.28436417990932 9.679660627099672 C117.06508990141141 10.515848485085668, 116.8458156229135 11.352036343071665, 116.57705160709475 12.376950018449895 C116.2312048253927 13.418585421734965, 115.88535804369063 14.460220825020038, 115.69837635916457 15.023379867326874 C115.39938046646826 15.761905502979095, 115.10038457377196 16.500431138631317, 114.65194910118785 17.60807542582413 C114.1838073460982 18.580181796896696, 113.71566559100856 19.552288167969266, 113.44206982722551 20.120415625476323 C113.11976060948558 20.69270827892093, 112.79745139174565 21.26500093236553, 112.07371019073256 22.550076721507835 C111.50262562477651 23.427415972494394, 110.93154105882046 24.304755223480953, 110.5524930749676 24.887074715314366 C110.1100080430298 25.47996434689533, 109.667523011092 26.07285397847629, 108.8846694873593 27.121806380854903 C108.40939584808193 27.680089841386305, 107.93412220880454 28.23837330191771, 107.07709287277623 29.245088726367264 C106.3340977780901 30.012292162662433, 105.59110268340397 30.779495598957606, 105.13719095125167 31.24819672925114 C104.47895207725671 31.845991858567125, 103.82071320326175 32.44378698788311, 103.07293519588882 33.12289918905732 C102.6180099315177 33.48568998132358, 102.16308466714659 33.848480773589834, 100.89280807636791 34.861492551256106 C100.32914544317184 35.254679203611566, 99.76548280997575 35.64786585596703, 98.60576820265888 36.45683256279506 C97.71757774334579 36.99525883881716, 96.8293872840327 37.53368511483926, 96.22121351217129 37.90236362936744 C95.63711014259819 38.207089983137664, 95.05300677302507 38.51181633690789, 93.74894265161379 39.19214575375523 C93.20164007976156 39.43442036716025, 92.65433750790935 39.67669498056527, 91.1991147122528 40.32087894455194 C90.58520615057107 40.546802970159355, 89.97129758888934 40.77272699576676, 88.58220748402752 41.283924994964075 C87.61728283197253 41.57030956670114, 86.65235817991756 41.85669413843821, 85.90897440006361 42.077326542197774 C85.18472099666631 42.242632655328066, 84.46046759326903 42.40793876845835, 83.19040034850971 42.697823329111344 C82.39861714905047 42.825832696429494, 81.60683394959122 42.95384206374764, 80.43765653327604 43.1428656013112 C79.73645176358798 43.21050998212089, 79.03524699389992 43.27815436293058, 77.66205456916101 43.41062458463963 C76.80688014317766 43.438048363984876, 75.95170571719433 43.46547214333012, 74.87500000000001 43.5 C74.87500000000001 43.5, 74.875 43.5, 74.875 43.5 C33.61531600846852 43.5, -7.644367983062963 43.5, -74.87499999999999 43.5 C-75.81291934755649 43.469922752073124, -76.750838695113 43.43984550414625, -77.66205456916099 43.41062458463963 C-78.6338846668359 43.316873303913624, -79.60571476451082 43.223122023187614, -80.43765653327603 43.1428656013112 C-81.16888734672963 43.024645874171675, -81.90011816018325 42.90642614703215, -83.1904003485097 42.697823329111344 C-83.85898837703499 42.54522247454507, -84.52757640556027 42.3926216199788, -85.90897440006356 42.07732654219778 C-86.88045578196386 41.788995967459606, -87.85193716386415 41.50066539272144, -88.58220748402748 41.283924994964096 C-89.38381604674407 40.988925633896066, -90.18542460946067 40.69392627282803, -91.19911471225278 40.32087894455194 C-92.03725854590648 39.9498575320469, -92.8754023795602 39.57883611954186, -93.74894265161377 39.192145753755234 C-94.54796785438792 38.77529481726803, -95.34699305716207 38.35844388078083, -96.22121351217127 37.90236362936745 C-96.7438125529148 37.58556101973587, -97.26641159365832 37.26875841010429, -98.60576820265884 36.456832562795086 C-99.4716472714085 35.85283280773608, -100.33752634015818 35.24883305267707, -100.89280807636788 34.86149255125612 C-101.4844825367233 34.389647914241316, -102.07615699707873 33.91780327722651, -103.07293519588879 33.12289918905736 C-103.86151159422722 32.40673496867454, -104.65008799256567 31.69057074829172, -105.13719095125164 31.24819672925117 C-105.83252287952116 30.53020942549989, -106.52785480779069 29.81222212174861, -107.07709287277623 29.245088726367282 C-107.73690050723401 28.470041134815187, -108.3967081416918 27.69499354326309, -108.88466948735929 27.121806380854917 C-109.32919810285844 26.52617853347604, -109.7737267183576 25.930550686097156, -110.55249307496757 24.887074715314395 C-111.15126001640243 23.967207901833746, -111.75002695783729 23.047341088353093, -112.07371019073254 22.550076721507864 C-112.56737491673299 21.673525011519953, -113.06103964273343 20.79697330153204, -113.44206982722551 20.120415625476337 C-113.79185461711945 19.394080025066003, -114.14163940701339 18.667744424655673, -114.65194910118784 17.608075425824147 C-115.04653991714825 16.63342848150748, -115.44113073310868 15.658781537190812, -115.69837635916457 15.023379867326907 C-115.87853989550717 14.480756001024274, -116.05870343184978 13.93813213472164, -116.57705160709475 12.37695001844991 C-116.84014820791577 11.373648652731212, -117.1032448087368 10.370347287012516, -117.28436417990932 9.679660627099686 C-117.48101701556368 8.669889878606131, -117.67766985121803 7.660119130112575, -117.81740757852859 6.942595433952017 C-117.89017780807319 6.378203903711228, -117.96294803761779 5.813812373470439, -118.17399141329011 4.17700162698419 C-118.21857202554179 3.482622606341721, -118.26315263779348 2.7882435856992527, -118.35265040472993 1.394243624367005 C-118.35265040472993 0.4242583385588664, -118.35265040472993 -0.5457269472492723, -118.35265040472993 -1.394243624366984 C-118.29517916263003 -2.2894046100245546, -118.23770792053013 -3.184565595682126, -118.17399141329012 -4.177001626984129 C-118.03909397204318 -5.223239542782736, -117.90419653079621 -6.269477458581343, -117.81740757852859 -6.942595433951997 C-117.62895490393363 -7.9102600885101655, -117.44050222933868 -8.877924743068334, -117.28436417990932 -9.679660627099667 C-117.05297233807251 -10.562058005882081, -116.8215804962357 -11.444455384664495, -116.57705160709475 -12.37695001844989 C-116.39176684346103 -12.9349982053966, -116.20648207982732 -13.49304639234331, -115.6983763591646 -15.023379867326852 C-115.2871697260197 -16.03906820133417, -114.8759630928748 -17.05475653534149, -114.65194910118785 -17.608075425824126 C-114.19015759366168 -18.56699537195762, -113.7283660861355 -19.52591531809112, -113.44206982722551 -20.12041562547632 C-112.9692870638938 -20.95988929621788, -112.4965043005621 -21.799362966959443, -112.07371019073256 -22.55007672150785 C-111.5685513106006 -23.326136415543218, -111.06339243046864 -24.102196109578585, -110.55249307496757 -24.88707471531438 C-110.16468401614289 -25.406703524007387, -109.77687495731821 -25.926332332700394, -108.8846694873593 -27.121806380854903 C-108.49330272608785 -27.58152804804394, -108.10193596481638 -28.041249715232976, -107.07709287277623 -29.245088726367264 C-106.68710870380576 -29.647779399125017, -106.29712453483528 -30.050470071882767, -105.13719095125168 -31.248196729251127 C-104.40463477024386 -31.91348487046801, -103.67207858923604 -32.578773011684895, -103.07293519588883 -33.12289918905732 C-102.4310504913257 -33.63478515967705, -101.7891657867626 -34.14667113029679, -100.89280807636791 -34.861492551256106 C-100.08152463541691 -35.42740875976939, -99.27024119446592 -35.99332496828268, -98.6057682026589 -36.45683256279505 C-97.88881746185689 -36.891452315139446, -97.17186672105488 -37.32607206748384, -96.2212135121713 -37.902363629367436 C-95.3863596980882 -38.3379063294252, -94.55150588400511 -38.77344902948296, -93.74894265161379 -39.19214575375523 C-92.76172358076602 -39.62915835160629, -91.77450450991823 -40.06617094945735, -91.1991147122528 -40.320878944551936 C-90.37693478655783 -40.623448757355604, -89.55475486086287 -40.92601857015927, -88.58220748402753 -41.283924994964075 C-87.54624074366521 -41.591394485603224, -86.51027400330287 -41.89886397624238, -85.90897440006361 -42.07732654219777 C-85.15218236921989 -42.250059384708315, -84.39539033837616 -42.42279222721887, -83.19040034850971 -42.69782332911134 C-82.11902222780816 -42.87103543500495, -81.0476441071066 -43.04424754089856, -80.43765653327604 -43.1428656013112 C-79.86120640106019 -43.19847505228335, -79.28475626884432 -43.2540845032555, -77.66205456916101 -43.41062458463963 C-76.90083534467833 -43.435035403545456, -76.13961612019564 -43.45944622245128, -74.87500000000001 -43.5 C-74.87500000000001 -43.5, -74.875 -43.5, -74.875 -43.5" stroke="none" stroke-width="0" fill="#eee" style=""/><path d="M-74.875 -43.5 C-32.55442409365207 -43.5, 9.766151812695867 -43.5, 74.875 -43.5 M-74.875 -43.5 C-30.71728142691307 -43.5, 13.440437146173863 -43.5, 74.875 -43.5 M74.875 -43.5 C74.875 -43.5, 74.875 -43.5, 74.875 -43.5 M74.875 -43.5 C74.875 -43.5, 74.875 -43.5, 74.875 -43.5 M74.875 -43.5 C75.69763165455518 -43.47361980399379, 76.52026330911038 -43.44723960798759, 77.66205456916101 -43.41062458463963 M74.875 -43.5 C75.58294361167961 -43.47729762630208, 76.29088722335922 -43.454595252604165, 77.66205456916101 -43.41062458463963 M77.66205456916101 -43.41062458463963 C78.43126605150411 -43.33641967805015, 79.20047753384722 -43.26221477146066, 80.43765653327601 -43.14286560131121 M77.66205456916101 -43.41062458463963 C78.50254295762804 -43.32954368063939, 79.34303134609506 -43.24846277663916, 80.43765653327601 -43.14286560131121 M80.43765653327601 -43.14286560131121 C81.31115428451893 -43.001645258966484, 82.18465203576186 -42.86042491662176, 83.19040034850968 -42.697823329111344 M80.43765653327601 -43.14286560131121 C80.98828151750425 -43.05384482402171, 81.5389065017325 -42.96482404673222, 83.19040034850968 -42.697823329111344 M83.19040034850968 -42.697823329111344 C84.22702744688486 -42.46121995853122, 85.26365454526002 -42.22461658795108, 85.90897440006356 -42.07732654219778 M83.19040034850968 -42.697823329111344 C83.79859707022165 -42.559006396235105, 84.40679379193361 -42.42018946335887, 85.90897440006356 -42.07732654219778 M85.90897440006356 -42.07732654219778 C86.63930286339303 -41.86056888785393, 87.36963132672251 -41.64381123351007, 88.58220748402749 -41.28392499496409 M85.90897440006356 -42.07732654219778 C86.96265337905501 -41.764600152106944, 88.01633235804647 -41.451873762016106, 88.58220748402749 -41.28392499496409 M88.58220748402749 -41.28392499496409 C89.33004471580824 -41.00871398073718, 90.07788194758899 -40.73350296651027, 91.19911471225277 -40.32087894455194 M88.58220748402749 -41.28392499496409 C89.43139551865835 -40.97141594841179, 90.2805835532892 -40.65890690185949, 91.19911471225277 -40.32087894455194 M91.19911471225277 -40.32087894455194 C92.16125226977972 -39.89496918863135, 93.12338982730668 -39.46905943271076, 93.74894265161377 -39.192145753755234 M91.19911471225277 -40.32087894455194 C92.19045008103231 -39.882044183712125, 93.18178544981185 -39.443209422872314, 93.74894265161377 -39.192145753755234 M93.74894265161377 -39.192145753755234 C94.46709017245924 -38.8174886521256, 95.18523769330471 -38.44283155049595, 96.22121351217129 -37.90236362936744 M93.74894265161377 -39.192145753755234 C94.53549197948495 -38.781803473213735, 95.3220413073561 -38.371461192672236, 96.22121351217129 -37.90236362936744 M96.22121351217129 -37.90236362936744 C96.72739319381681 -37.59551453171194, 97.23357287546233 -37.28866543405644, 98.60576820265887 -36.45683256279507 M96.22121351217129 -37.90236362936744 C96.74421942863016 -37.58531436928616, 97.26722534508903 -37.26826510920487, 98.60576820265887 -36.45683256279507 M98.60576820265887 -36.45683256279507 C99.07461550504945 -36.12978498072, 99.54346280744005 -35.80273739864493, 100.8928080763679 -34.86149255125611 M98.60576820265887 -36.45683256279507 C99.44894552344543 -35.8686685643723, 100.29212284423198 -35.28050456594953, 100.8928080763679 -34.86149255125611 M100.8928080763679 -34.86149255125611 C101.64915531010236 -34.25832575959806, 102.40550254383683 -33.65515896794, 103.07293519588879 -33.12289918905735 M100.8928080763679 -34.86149255125611 C101.72516685380658 -34.197708576246065, 102.55752563124528 -33.53392460123601, 103.07293519588879 -33.12289918905735 M103.07293519588879 -33.12289918905735 C103.60937908831042 -32.635715039487636, 104.14582298073205 -32.14853088991793, 105.13719095125165 -31.248196729251152 M103.07293519588879 -33.12289918905735 C103.78835891513806 -32.47317029630949, 104.50378263438733 -31.823441403561624, 105.13719095125165 -31.248196729251152 M105.13719095125165 -31.248196729251152 C105.71706849845557 -30.64942555293107, 106.29694604565951 -30.05065437661099, 107.07709287277622 -29.24508872636729 M105.13719095125165 -31.248196729251152 C105.66453125431175 -30.703674570897533, 106.19187155737185 -30.159152412543914, 107.07709287277622 -29.24508872636729 M107.07709287277622 -29.24508872636729 C107.61066864204042 -28.618320266468185, 108.14424441130464 -27.991551806569078, 108.8846694873593 -27.12180638085491 M107.07709287277622 -29.24508872636729 C107.6846698551936 -28.531394230710145, 108.29224683761099 -27.817699735053004, 108.8846694873593 -27.12180638085491 M108.8846694873593 -27.12180638085491 C109.33017526371773 -26.524869226945782, 109.77568104007617 -25.927932073036654, 110.55249307496757 -24.88707471531439 M108.8846694873593 -27.12180638085491 C109.35972781363824 -26.485271502344975, 109.83478613991718 -25.84873662383504, 110.55249307496757 -24.88707471531439 M110.55249307496757 -24.88707471531439 C111.05210965212953 -24.11952948695766, 111.5517262292915 -23.351984258600933, 112.07371019073256 -22.550076721507846 M110.55249307496757 -24.88707471531439 C111.15871279202368 -23.955758437129045, 111.76493250907978 -23.024442158943696, 112.07371019073256 -22.550076721507846 M112.07371019073256 -22.550076721507846 C112.4262180566437 -21.92416331029051, 112.77872592255486 -21.298249899073177, 113.44206982722551 -20.120415625476333 M112.07371019073256 -22.550076721507846 C112.52913467702511 -21.741424429365452, 112.98455916331767 -20.932772137223058, 113.44206982722551 -20.120415625476333 M113.44206982722551 -20.120415625476333 C113.69893392248214 -19.587031835664753, 113.95579801773876 -19.053648045853176, 114.65194910118784 -17.60807542582414 M113.44206982722551 -20.120415625476333 C113.87823781968446 -19.21470345663532, 114.3144058121434 -18.30899128779431, 114.65194910118784 -17.60807542582414 M114.65194910118784 -17.60807542582414 C115.06719884003844 -16.582400542555607, 115.48244857888905 -15.556725659287073, 115.69837635916457 -15.023379867326902 M114.65194910118784 -17.60807542582414 C114.9007448507266 -16.99354511432483, 115.14954060026534 -16.379014802825527, 115.69837635916457 -15.023379867326902 M115.69837635916457 -15.023379867326902 C116.03170649986738 -14.019442592475638, 116.3650366405702 -13.015505317624372, 116.57705160709475 -12.376950018449923 M115.69837635916457 -15.023379867326902 C116.0463394545695 -13.975370464357544, 116.39430254997444 -12.927361061388186, 116.57705160709475 -12.376950018449923 M116.57705160709475 -12.376950018449923 C116.77870796784362 -11.607946916494834, 116.9803643285925 -10.838943814539745, 117.28436417990932 -9.67966062709968 M116.57705160709475 -12.376950018449923 C116.79543668208386 -11.544153078826188, 117.01382175707298 -10.711356139202454, 117.28436417990932 -9.67966062709968 M117.28436417990932 -9.67966062709968 C117.453851299288 -8.809380090205488, 117.6233384186667 -7.939099553311298, 117.81740757852859 -6.942595433952013 M117.28436417990932 -9.67966062709968 C117.39516852797563 -9.110703718286484, 117.50597287604192 -8.541746809473286, 117.81740757852859 -6.942595433952013 M117.81740757852859 -6.942595433952013 C117.92836519520209 -6.0820300700920304, 118.03932281187559 -5.221464706232048, 118.17399141329012 -4.177001626984165 M117.81740757852859 -6.942595433952013 C117.93092365057224 -6.062187195465338, 118.04443972261588 -5.181778956978663, 118.17399141329012 -4.177001626984165 M118.17399141329012 -4.177001626984165 C118.2399843335398 -3.149108625569159, 118.30597725378946 -2.1212156241541535, 118.35265040472993 -1.3942436243669998 M118.17399141329012 -4.177001626984165 C118.2101162830439 -3.614327621099033, 118.24624115279768 -3.051653615213901, 118.35265040472993 -1.3942436243669998 M118.35265040472993 -1.3942436243669998 C118.35265040472993 -0.2972338556161609, 118.35265040472993 0.799775913134678, 118.35265040472993 1.3942436243669891 M118.35265040472993 -1.3942436243669998 C118.35265040472993 -0.6979612039747568, 118.35265040472993 -0.001678783582513832, 118.35265040472993 1.3942436243669891 M118.35265040472993 1.3942436243669891 C118.28329184055139 2.474559246673155, 118.21393327637284 3.5548748689793213, 118.17399141329012 4.177001626984135 M118.35265040472993 1.3942436243669891 C118.30625448588522 2.1168975104849315, 118.25985856704051 2.8395513966028734, 118.17399141329012 4.177001626984135 M118.17399141329012 4.177001626984135 C118.072006994647 4.967972638878913, 117.97002257600387 5.758943650773691, 117.81740757852859 6.942595433951983 M118.17399141329012 4.177001626984135 C118.06090974372842 5.054040725603361, 117.94782807416671 5.931079824222588, 117.81740757852859 6.942595433951983 M117.81740757852859 6.942595433951983 C117.67787649402294 7.659058062983323, 117.53834540951729 8.375520692014664, 117.28436417990932 9.679660627099672 M117.81740757852859 6.942595433951983 C117.67042868739142 7.697300975941669, 117.52344979625425 8.452006517931355, 117.28436417990932 9.679660627099672 M117.28436417990932 9.679660627099672 C117.09839412183418 10.388845058473235, 116.91242406375903 11.098029489846798, 116.57705160709475 12.376950018449895 M117.28436417990932 9.679660627099672 C117.09631445615233 10.396775725050897, 116.90826473239535 11.113890823002123, 116.57705160709475 12.376950018449895 M116.57705160709475 12.376950018449895 C116.36739400714099 13.008405305108447, 116.15773640718724 13.639860591767, 115.69837635916457 15.023379867326874 M116.57705160709475 12.376950018449895 C116.30527455520469 13.19549919695002, 116.03349750331462 14.014048375450145, 115.69837635916457 15.023379867326874 M115.69837635916457 15.023379867326874 C115.48493299671759 15.5505890992176, 115.27148963427061 16.077798331108326, 114.65194910118785 17.60807542582413 M115.69837635916457 15.023379867326874 C115.43891045246397 15.664265673309414, 115.17944454576337 16.305151479291954, 114.65194910118785 17.60807542582413 M114.65194910118785 17.60807542582413 C114.28358008700245 18.373001565614366, 113.91521107281704 19.137927705404607, 113.44206982722551 20.120415625476323 M114.65194910118785 17.60807542582413 C114.31697871117956 18.303648607894523, 113.98200832117126 18.999221789964917, 113.44206982722551 20.120415625476323 M113.44206982722551 20.120415625476323 C113.05535050162396 20.807074947659906, 112.66863117602242 21.493734269843493, 112.07371019073256 22.550076721507835 M113.44206982722551 20.120415625476323 C113.03363059123761 20.84564084793029, 112.62519135524971 21.570866070384263, 112.07371019073256 22.550076721507835 M112.07371019073256 22.550076721507835 C111.6799984394636 23.15492369786525, 111.28628668819466 23.759770674222665, 110.5524930749676 24.887074715314366 M112.07371019073256 22.550076721507835 C111.58550937369868 23.300084276747008, 111.09730855666481 24.05009183198618, 110.5524930749676 24.887074715314366 M110.5524930749676 24.887074715314366 C109.92094158942461 25.733296170418008, 109.28939010388163 26.579517625521653, 108.8846694873593 27.121806380854903 M110.5524930749676 24.887074715314366 C109.9012850322926 25.759634166225712, 109.25007698961761 26.632193617137055, 108.8846694873593 27.121806380854903 M108.8846694873593 27.121806380854903 C108.29215592451591 27.817806526747585, 107.6996423616725 28.513806672640268, 107.07709287277623 29.245088726367264 M108.8846694873593 27.121806380854903 C108.16880044966915 27.962706886627945, 107.452931411979 28.803607392400988, 107.07709287277623 29.245088726367264 M107.07709287277623 29.245088726367264 C106.51320314370602 29.827351167840014, 105.9493134146358 30.40961360931276, 105.13719095125167 31.24819672925114 M107.07709287277623 29.245088726367264 C106.53838849657006 29.801345223251964, 105.99968412036388 30.357601720136667, 105.13719095125167 31.24819672925114 M105.13719095125167 31.24819672925114 C104.54210632345738 31.788636843137468, 103.94702169566308 32.329076957023794, 103.07293519588882 33.12289918905732 M105.13719095125167 31.24819672925114 C104.40963039652287 31.90894797485843, 103.68206984179407 32.56969922046572, 103.07293519588882 33.12289918905732 M103.07293519588882 33.12289918905732 C102.62246929908919 33.482133754354074, 102.17200340228956 33.841368319650826, 100.89280807636791 34.861492551256106 M103.07293519588882 33.12289918905732 C102.4486936100441 33.62071524200224, 101.82445202419937 34.11853129494716, 100.89280807636791 34.861492551256106 M100.89280807636791 34.861492551256106 C100.11782941138443 35.402084119662874, 99.34285074640096 35.94267568806964, 98.60576820265888 36.45683256279506 M100.89280807636791 34.861492551256106 C100.12891611967125 35.394350511897855, 99.36502416297459 35.927208472539604, 98.60576820265888 36.45683256279506 M98.60576820265888 36.45683256279506 C97.89644829744117 36.886826457764485, 97.18712839222346 37.31682035273391, 96.22121351217129 37.90236362936744 M98.60576820265888 36.45683256279506 C98.06137225049123 36.78684858822481, 97.5169762983236 37.116864613654556, 96.22121351217129 37.90236362936744 M96.22121351217129 37.90236362936744 C95.43345447094711 38.313337016590346, 94.64569542972293 38.724310403813256, 93.74894265161379 39.19214575375523 M96.22121351217129 37.90236362936744 C95.54247078439253 38.25646327569415, 94.86372805661378 38.61056292202086, 93.74894265161379 39.19214575375523 M93.74894265161379 39.19214575375523 C92.77890057182589 39.621554607201425, 91.80885849203798 40.050963460647615, 91.1991147122528 40.32087894455194 M93.74894265161379 39.19214575375523 C93.13236948253855 39.465084405711615, 92.51579631346333 39.73802305766801, 91.1991147122528 40.32087894455194 M91.1991147122528 40.32087894455194 C90.20915952666525 40.68519160389358, 89.2192043410777 41.049504263235214, 88.58220748402752 41.283924994964075 M91.1991147122528 40.32087894455194 C90.37637280726064 40.62365557093185, 89.55363090226848 40.92643219731176, 88.58220748402752 41.283924994964075 M88.58220748402752 41.283924994964075 C87.8894562890749 41.489529913300785, 87.19670509412228 41.6951348316375, 85.90897440006361 42.077326542197774 M88.58220748402752 41.283924994964075 C87.68786528182811 41.54936106607885, 86.79352307962868 41.81479713719362, 85.90897440006361 42.077326542197774 M85.90897440006361 42.077326542197774 C84.85012767137009 42.319001398401426, 83.79128094267658 42.560676254605085, 83.19040034850971 42.697823329111344 M85.90897440006361 42.077326542197774 C85.12985632279997 42.255155159112604, 84.35073824553632 42.43298377602743, 83.19040034850971 42.697823329111344 M83.19040034850971 42.697823329111344 C82.271585315502 42.84637021813103, 81.35277028249428 42.99491710715071, 80.43765653327604 43.1428656013112 M83.19040034850971 42.697823329111344 C82.56382577466181 42.79912304705268, 81.9372512008139 42.90042276499401, 80.43765653327604 43.1428656013112 M80.43765653327604 43.1428656013112 C79.3597734095977 43.246847689908336, 78.28189028591933 43.350829778505464, 77.66205456916101 43.41062458463963 M80.43765653327604 43.1428656013112 C79.53852252757703 43.229603977474135, 78.63938852187803 43.31634235363706, 77.66205456916101 43.41062458463963 M77.66205456916101 43.41062458463963 C76.94368559352789 43.4336612794678, 76.22531661789478 43.45669797429596, 74.87500000000001 43.5 M77.66205456916101 43.41062458463963 C77.10063787924746 43.428628125153864, 76.53922118933389 43.44663166566809, 74.87500000000001 43.5 M74.87500000000001 43.5 C74.87500000000001 43.5, 74.87500000000001 43.5, 74.875 43.5 M74.87500000000001 43.5 C74.87500000000001 43.5, 74.875 43.5, 74.875 43.5 M74.875 43.5 C16.304686509263483 43.5, -42.265626981473034 43.5, -74.87499999999999 43.5 M74.875 43.5 C21.329427326866785 43.5, -32.21614534626643 43.5, -74.87499999999999 43.5 M-74.87499999999999 43.5 C-75.95642799536972 43.46532070906039, -77.03785599073946 43.43064141812078, -77.66205456916099 43.41062458463963 M-74.87499999999999 43.5 C-75.62542474638461 43.4759353389966, -76.37584949276925 43.451870677993206, -77.66205456916099 43.41062458463963 M-77.66205456916099 43.41062458463963 C-78.68054628791482 43.312371913446945, -79.69903800666866 43.21411924225427, -80.43765653327603 43.1428656013112 M-77.66205456916099 43.41062458463963 C-78.47050666656534 43.33263418310893, -79.2789587639697 43.25464378157823, -80.43765653327603 43.1428656013112 M-80.43765653327603 43.1428656013112 C-81.22838358544243 43.01502698369681, -82.01911063760885 42.88718836608242, -83.1904003485097 42.697823329111344 M-80.43765653327603 43.1428656013112 C-81.43916361707964 42.98094970280527, -82.44067070088326 42.81903380429933, -83.1904003485097 42.697823329111344 M-83.1904003485097 42.697823329111344 C-84.14197804663227 42.48063192913966, -85.09355574475487 42.26344052916798, -85.90897440006356 42.07732654219778 M-83.1904003485097 42.697823329111344 C-83.75147648837482 42.569761361551116, -84.31255262823994 42.44169939399088, -85.90897440006356 42.07732654219778 M-85.90897440006356 42.07732654219778 C-86.73673965218397 41.83165016039692, -87.5645049043044 41.585973778596056, -88.58220748402748 41.283924994964096 M-85.90897440006356 42.07732654219778 C-86.58953287939757 41.875340357855805, -87.27009135873156 41.67335417351383, -88.58220748402748 41.283924994964096 M-88.58220748402748 41.283924994964096 C-89.29951481597912 41.0199492660896, -90.01682214793078 40.7559735372151, -91.19911471225278 40.32087894455194 M-88.58220748402748 41.283924994964096 C-89.4688988607237 40.95761437185465, -90.3555902374199 40.63130374874521, -91.19911471225278 40.32087894455194 M-91.19911471225278 40.32087894455194 C-91.79746859467375 40.056005430341465, -92.39582247709471 39.791131916130986, -93.74894265161377 39.192145753755234 M-91.19911471225278 40.32087894455194 C-91.77193799953493 40.06730706747122, -92.34476128681708 39.813735190390496, -93.74894265161377 39.192145753755234 M-93.74894265161377 39.192145753755234 C-94.48773379444808 38.806718887756894, -95.22652493728238 38.421292021758546, -96.22121351217127 37.90236362936745 M-93.74894265161377 39.192145753755234 C-94.26335640762751 38.92377642674061, -94.77777016364124 38.65540709972598, -96.22121351217127 37.90236362936745 M-96.22121351217127 37.90236362936745 C-96.7365485776563 37.58996448422543, -97.25188364314131 37.27756533908342, -98.60576820265884 36.456832562795086 M-96.22121351217127 37.90236362936745 C-96.8975548461978 37.492361538057715, -97.57389618022432 37.08235944674798, -98.60576820265884 36.456832562795086 M-98.60576820265884 36.456832562795086 C-99.45242796313688 35.866239365195916, -100.29908772361492 35.275646167596754, -100.89280807636788 34.86149255125612 M-98.60576820265884 36.456832562795086 C-99.3069456119701 35.96772155554039, -100.00812302128134 35.47861054828571, -100.89280807636788 34.86149255125612 M-100.89280807636788 34.86149255125612 C-101.71961041596118 34.20213968756475, -102.54641275555448 33.54278682387339, -103.07293519588879 33.12289918905736 M-100.89280807636788 34.86149255125612 C-101.46717831308074 34.40344757211153, -102.0415485497936 33.94540259296694, -103.07293519588879 33.12289918905736 M-103.07293519588879 33.12289918905736 C-103.63727661219411 32.61037924642451, -104.20161802849944 32.09785930379165, -105.13719095125164 31.24819672925117 M-103.07293519588879 33.12289918905736 C-103.76075860504594 32.49823616767098, -104.44858201420307 31.87357314628461, -105.13719095125164 31.24819672925117 M-105.13719095125164 31.24819672925117 C-105.87025442192274 30.491248510153024, -106.60331789259384 29.73430029105488, -107.07709287277623 29.245088726367282 M-105.13719095125164 31.24819672925117 C-105.71560723214417 30.650934430369805, -106.29402351303669 30.053672131488444, -107.07709287277623 29.245088726367282 M-107.07709287277623 29.245088726367282 C-107.55132599478284 28.68802751662924, -108.02555911678944 28.130966306891196, -108.88466948735929 27.121806380854917 M-107.07709287277623 29.245088726367282 C-107.46004562165814 28.795250636901873, -107.84299837054006 28.345412547436464, -108.88466948735929 27.121806380854917 M-108.88466948735929 27.121806380854917 C-109.41961045751154 26.40503421497584, -109.95455142766379 25.68826204909676, -110.55249307496757 24.887074715314395 M-108.88466948735929 27.121806380854917 C-109.38925591553846 26.44570653586412, -109.89384234371761 25.76960669087332, -110.55249307496757 24.887074715314395 M-110.55249307496757 24.887074715314395 C-111.04611549917072 24.12873811555783, -111.53973792337388 23.37040151580127, -112.07371019073254 22.550076721507864 M-110.55249307496757 24.887074715314395 C-110.98453829849953 24.2233372315824, -111.41658352203149 23.559599747850402, -112.07371019073254 22.550076721507864 M-112.07371019073254 22.550076721507864 C-112.4836591627759 21.8221708098101, -112.89360813481923 21.094264898112332, -113.44206982722551 20.120415625476337 M-112.07371019073254 22.550076721507864 C-112.40492375694492 21.96197349568737, -112.7361373231573 21.373870269866874, -113.44206982722551 20.120415625476337 M-113.44206982722551 20.120415625476337 C-113.76049121991232 19.459206790435786, -114.07891261259915 18.797997955395235, -114.65194910118784 17.608075425824147 M-113.44206982722551 20.120415625476337 C-113.89263324807871 19.184811041561847, -114.3431966689319 18.24920645764736, -114.65194910118784 17.608075425824147 M-114.65194910118784 17.608075425824147 C-114.90166177241005 16.991280300039215, -115.15137444363226 16.374485174254282, -115.69837635916457 15.023379867326907 M-114.65194910118784 17.608075425824147 C-115.01531380697 16.71055757736356, -115.37867851275215 15.813039728902968, -115.69837635916457 15.023379867326907 M-115.69837635916457 15.023379867326907 C-115.99789691020612 14.121271689708788, -116.29741746124766 13.219163512090667, -116.57705160709475 12.37695001844991 M-115.69837635916457 15.023379867326907 C-115.94391968224531 14.283842500223399, -116.18946300532603 13.544305133119892, -116.57705160709475 12.37695001844991 M-116.57705160709475 12.37695001844991 C-116.85503138555434 11.316892645985389, -117.13301116401392 10.256835273520869, -117.28436417990932 9.679660627099686 M-116.57705160709475 12.37695001844991 C-116.78947897826635 11.566872385567516, -117.00190634943796 10.756794752685119, -117.28436417990932 9.679660627099686 M-117.28436417990932 9.679660627099686 C-117.46306538531438 8.762067705857886, -117.64176659071943 7.844474784616085, -117.81740757852859 6.942595433952017 M-117.28436417990932 9.679660627099686 C-117.40956103504641 9.036801236335464, -117.5347578901835 8.393941845571241, -117.81740757852859 6.942595433952017 M-117.81740757852859 6.942595433952017 C-117.93739158926283 6.0120231402200455, -118.05737559999707 5.081450846488073, -118.17399141329011 4.17700162698419 M-117.81740757852859 6.942595433952017 C-117.9314686489833 6.057960295411276, -118.045529719438 5.173325156870535, -118.17399141329011 4.17700162698419 M-118.17399141329011 4.17700162698419 C-118.24416938442664 3.083923079894011, -118.31434735556319 1.9908445328038318, -118.35265040472993 1.394243624367005 M-118.17399141329011 4.17700162698419 C-118.21775433088935 3.4953588605847337, -118.2615172484886 2.8137160941852777, -118.35265040472993 1.394243624367005 M-118.35265040472993 1.394243624367005 C-118.35265040472993 0.38841284937637877, -118.35265040472993 -0.6174179256142476, -118.35265040472993 -1.394243624366984 M-118.35265040472993 1.394243624367005 C-118.35265040472993 0.6915837226240139, -118.35265040472993 -0.011076179118977292, -118.35265040472993 -1.394243624366984 M-118.35265040472993 -1.394243624366984 C-118.31251451449263 -2.0193925119203815, -118.27237862425534 -2.6445413994737788, -118.17399141329012 -4.177001626984129 M-118.35265040472993 -1.394243624366984 C-118.30642538796869 -2.11423557258522, -118.26020037120745 -2.8342275208034557, -118.17399141329012 -4.177001626984129 M-118.17399141329012 -4.177001626984129 C-118.08332067318142 -4.880225982304413, -117.99264993307273 -5.583450337624698, -117.81740757852859 -6.942595433951997 M-118.17399141329012 -4.177001626984129 C-118.06014838852586 -5.059945646207838, -117.94630536376158 -5.942889665431547, -117.81740757852859 -6.942595433951997 M-117.81740757852859 -6.942595433951997 C-117.63475599519947 -7.880472710921198, -117.45210441187035 -8.818349987890398, -117.28436417990932 -9.679660627099667 M-117.81740757852859 -6.942595433951997 C-117.69880392976903 -7.551600103442304, -117.58020028100945 -8.160604772932611, -117.28436417990932 -9.679660627099667 M-117.28436417990932 -9.679660627099667 C-117.05979359556753 -10.536045594701852, -116.83522301122574 -11.392430562304039, -116.57705160709475 -12.37695001844989 M-117.28436417990932 -9.679660627099667 C-117.012160129492 -10.717692645322625, -116.73995607907469 -11.755724663545585, -116.57705160709475 -12.37695001844989 M-116.57705160709475 -12.37695001844989 C-116.37088285880478 -12.99789743977017, -116.16471411051481 -13.618844861090452, -115.6983763591646 -15.023379867326852 M-116.57705160709475 -12.37695001844989 C-116.23315160091691 -13.412722044032591, -115.88925159473908 -14.448494069615291, -115.6983763591646 -15.023379867326852 M-115.6983763591646 -15.023379867326852 C-115.3389389010555 -15.911197338106827, -114.9795014429464 -16.799014808886803, -114.65194910118785 -17.608075425824126 M-115.6983763591646 -15.023379867326852 C-115.48256146473034 -15.556446829076592, -115.26674657029609 -16.08951379082633, -114.65194910118785 -17.608075425824126 M-114.65194910118785 -17.608075425824126 C-114.40814279008147 -18.114344447455885, -114.1643364789751 -18.620613469087647, -113.44206982722551 -20.12041562547632 M-114.65194910118785 -17.608075425824126 C-114.40217587886731 -18.126734866263554, -114.15240265654676 -18.645394306702983, -113.44206982722551 -20.12041562547632 M-113.44206982722551 -20.12041562547632 C-112.99361484276078 -20.916692861384842, -112.54515985829603 -21.712970097293365, -112.07371019073256 -22.55007672150785 M-113.44206982722551 -20.12041562547632 C-113.1141852419692 -20.702607908513443, -112.7863006567129 -21.284800191550566, -112.07371019073256 -22.55007672150785 M-112.07371019073256 -22.55007672150785 C-111.51751326193161 -23.40454456393381, -110.96131633313068 -24.259012406359773, -110.55249307496757 -24.88707471531438 M-112.07371019073256 -22.55007672150785 C-111.48296338044851 -23.45762245983408, -110.89221657016445 -24.365168198160312, -110.55249307496757 -24.88707471531438 M-110.55249307496757 -24.88707471531438 C-109.98341825902222 -25.649583124898903, -109.41434344307686 -26.412091534483427, -108.8846694873593 -27.121806380854903 M-110.55249307496757 -24.88707471531438 C-110.16245953548088 -25.409684125440126, -109.77242599599418 -25.93229353556587, -108.8846694873593 -27.121806380854903 M-108.8846694873593 -27.121806380854903 C-108.39512115167969 -27.696857712033612, -107.90557281600006 -28.271909043212318, -107.07709287277623 -29.245088726367264 M-108.8846694873593 -27.121806380854903 C-108.22629260814182 -27.89517332588946, -107.56791572892433 -28.668540270924016, -107.07709287277623 -29.245088726367264 M-107.07709287277623 -29.245088726367264 C-106.62107377036203 -29.71596588947452, -106.16505466794783 -30.18684305258178, -105.13719095125168 -31.248196729251127 M-107.07709287277623 -29.245088726367264 C-106.52604252663744 -29.814093450830384, -105.97499218049863 -30.3830981752935, -105.13719095125168 -31.248196729251127 M-105.13719095125168 -31.248196729251127 C-104.69817798776988 -31.6468966870388, -104.2591650242881 -32.045596644826475, -103.07293519588883 -33.12289918905732 M-105.13719095125168 -31.248196729251127 C-104.70086203596664 -31.64445910548253, -104.2645331206816 -32.04072148171393, -103.07293519588883 -33.12289918905732 M-103.07293519588883 -33.12289918905732 C-102.57386623055662 -33.520893408126845, -102.07479726522439 -33.91888762719636, -100.89280807636791 -34.861492551256106 M-103.07293519588883 -33.12289918905732 C-102.25674416946129 -33.7737898128779, -101.44055314303375 -34.42468043669848, -100.89280807636791 -34.861492551256106 M-100.89280807636791 -34.861492551256106 C-100.3899695767985 -35.2122509210279, -99.88713107722911 -35.5630092907997, -98.6057682026589 -36.45683256279505 M-100.89280807636791 -34.861492551256106 C-100.33715665502416 -35.249090929023154, -99.7815052336804 -35.6366893067902, -98.6057682026589 -36.45683256279505 M-98.6057682026589 -36.45683256279505 C-98.04151284094446 -36.79888747899891, -97.47725747923003 -37.140942395202764, -96.2212135121713 -37.902363629367436 M-98.6057682026589 -36.45683256279505 C-97.70008759372784 -37.00586147029908, -96.79440698479681 -37.55489037780312, -96.2212135121713 -37.902363629367436 M-96.2212135121713 -37.902363629367436 C-95.68270432566503 -38.18330352703616, -95.14419513915877 -38.46424342470488, -93.74894265161379 -39.19214575375523 M-96.2212135121713 -37.902363629367436 C-95.48155277935292 -38.28824415990347, -94.74189204653455 -38.67412469043951, -93.74894265161379 -39.19214575375523 M-93.74894265161379 -39.19214575375523 C-92.99884744490245 -39.5241906509826, -92.24875223819112 -39.856235548209966, -91.1991147122528 -40.320878944551936 M-93.74894265161379 -39.19214575375523 C-93.03652030483559 -39.507513993415884, -92.32409795805738 -39.82288223307654, -91.1991147122528 -40.320878944551936 M-91.1991147122528 -40.320878944551936 C-90.37132900642797 -40.62551173626266, -89.54354330060313 -40.930144527973376, -88.58220748402753 -41.283924994964075 M-91.1991147122528 -40.320878944551936 C-90.19790156617117 -40.689334637422846, -89.19668842008953 -41.05779033029375, -88.58220748402753 -41.283924994964075 M-88.58220748402753 -41.283924994964075 C-87.73829786128654 -41.5343929412216, -86.89438823854555 -41.78486088747912, -85.90897440006361 -42.07732654219777 M-88.58220748402753 -41.283924994964075 C-87.60139101850424 -41.5750261735207, -86.62057455298097 -41.86612735207732, -85.90897440006361 -42.07732654219777 M-85.90897440006361 -42.07732654219777 C-85.14730311466978 -42.251173042719266, -84.38563182927597 -42.425019543240765, -83.19040034850971 -42.69782332911134 M-85.90897440006361 -42.07732654219777 C-84.85048856295644 -42.31891902725187, -83.79200272584927 -42.56051151230598, -83.19040034850971 -42.69782332911134 M-83.19040034850971 -42.69782332911134 C-82.53153292919693 -42.80434390387268, -81.87266550988414 -42.910864478634025, -80.43765653327604 -43.1428656013112 M-83.19040034850971 -42.69782332911134 C-82.31868963872962 -42.83875475645107, -81.44697892894953 -42.97968618379079, -80.43765653327604 -43.1428656013112 M-80.43765653327604 -43.1428656013112 C-79.43331976241465 -43.23975276170451, -78.42898299155326 -43.336639922097824, -77.66205456916101 -43.41062458463963 M-80.43765653327604 -43.1428656013112 C-79.79030661457945 -43.20531466941568, -79.14295669588286 -43.267763737520156, -77.66205456916101 -43.41062458463963 M-77.66205456916101 -43.41062458463963 C-77.08121493147503 -43.42925098128445, -76.50037529378905 -43.44787737792927, -74.87500000000001 -43.5 M-77.66205456916101 -43.41062458463963 C-77.04899890404778 -43.43028408657935, -76.43594323893454 -43.44994358851907, -74.87500000000001 -43.5 M-74.87500000000001 -43.5 C-74.87500000000001 -43.5, -74.875 -43.5, -74.875 -43.5 M-74.87500000000001 -43.5 C-74.87500000000001 -43.5, -74.87500000000001 -43.5, -74.875 -43.5" stroke="#999" stroke-width="1.3" fill="none" stroke-dasharray="0 0" style=""/></g><g class="label" style="" transform="translate(-100, -36)"><rect/><foreignObject width="200" height="72"><div xmlns="http://www.w3.org/1999/xhtml" style="display: table; white-space: break-spaces; line-height: 1.5; max-width: 200px; text-align: center; width: 200px;"><span class="nodeLabel"><p>Service / Ingress<br />(any pod, no leader routing)</p></span></div></foreignObject></g></g><g class="node default" id="my-svg-flowchart-LREC-2" data-look="classic" transform="translate(976.8381195068359, 303.4264678955078)"><rect class="basic label-container" style="" x="-76.4921875" y="-39" width="152.984375" height="78"/><g class="label" style="" transform="translate(-46.4921875, -24)"><rect/><foreignObject width="92.984375" height="48"><div xmlns="http://www.w3.org/1999/xhtml" style="display: table-cell; white-space: nowrap; line-height: 1.5; max-width: 200px; text-align: center;"><span class="nodeLabel"><p>Recorder<br />runPollLoop</p></span></div></foreignObject></g></g><g class="node default" id="my-svg-flowchart-LEL-3" data-look="classic" transform="translate(976.8381195068359, 668.8529357910156)"><rect class="basic label-container" style="" x="-106.6953125" y="-39" width="213.390625" height="78"/><g class="label" style="" transform="translate(-76.6953125, -24)"><rect/><foreignObject width="153.390625" height="48"><div xmlns="http://www.w3.org/1999/xhtml" style="display: table-cell; white-space: nowrap; line-height: 1.5; max-width: 200px; text-align: center;"><span class="nodeLabel"><p>Elector<br />holds advisory lock</p></span></div></foreignObject></g></g><g class="node default" id="my-svg-flowchart-LHUB-4" data-look="classic" transform="translate(94.6953125, 414.4264678955078)"><rect class="basic label-container" style="" x="-61.6953125" y="-27" width="123.390625" height="54"/><g class="label" style="" transform="translate(-31.6953125, -12)"><rect/><foreignObject width="63.390625" height="24"><div xmlns="http://www.w3.org/1999/xhtml" style="display: table-cell; white-space: nowrap; line-height: 1.5; max-width: 200px; text-align: center;"><span class="nodeLabel"><p>WS Hub</p></span></div></foreignObject></g></g><g class="node default" id="my-svg-flowchart-LFAN-5" data-look="classic" transform="translate(976.8381195068359, 784.8529357910156)"><rect class="basic label-container" style="" x="-56.9453125" y="-27" width="113.890625" height="54"/><g class="label" style="" transform="translate(-26.9453125, -12)"><rect/><foreignObject width="53.890625" height="24"><div xmlns="http://www.w3.org/1999/xhtml" style="display: table-cell; white-space: nowrap; line-height: 1.5; max-width: 200px; text-align: center;"><span class="nodeLabel"><p>Fanout</p></span></div></foreignObject></g></g><g class="node default" id="my-svg-flowchart-FREC-6" data-look="classic" transform="translate(2437.720932006836, 1090.8529357910156)"><rect class="basic label-container" style="" x="-95.921875" y="-39" width="191.84375" height="78"/><g class="label" style="" transform="translate(-65.921875, -24)"><rect/><foreignObject width="131.84375" height="48"><div xmlns="http://www.w3.org/1999/xhtml" style="display: table-cell; white-space: nowrap; line-height: 1.5; max-width: 200px; text-align: center;"><span class="nodeLabel"><p>Recorder<br />runFollowerLoop</p></span></div></foreignObject></g></g><g class="node default" id="my-svg-flowchart-FEL-7" data-look="classic" transform="translate(1494.947494506836, 1037.8529357910156)"><rect class="basic label-container" style="" x="-111.4140625" y="-39" width="222.828125" height="78"/><g class="label" style="" transform="translate(-81.4140625, -24)"><rect/><foreignObject width="162.828125" height="48"><div xmlns="http://www.w3.org/1999/xhtml" style="display: table-cell; white-space: nowrap; line-height: 1.5; max-width: 200px; text-align: center;"><span class="nodeLabel"><p>Elector<br />retries lock every 5s</p></span></div></foreignObject></g></g><g class="node default" id="my-svg-flowchart-FHUB-8" data-look="classic" transform="translate(2845.338119506836, 1090.8529357910156)"><rect class="basic label-container" style="" x="-61.6953125" y="-27" width="123.390625" height="54"/><g class="label" style="" transform="translate(-31.6953125, -12)"><rect/><foreignObject width="63.390625" height="24"><div xmlns="http://www.w3.org/1999/xhtml" style="display: table-cell; white-space: nowrap; line-height: 1.5; max-width: 200px; text-align: center;"><span class="nodeLabel"><p>WS Hub</p></span></div></foreignObject></g></g><g class="node default" id="my-svg-flowchart-FFAN-9" data-look="classic" transform="translate(2437.720932006836, 958.8529357910156)"><rect class="basic label-container" style="" x="-56.9453125" y="-27" width="113.890625" height="54"/><g class="label" style="" transform="translate(-26.9453125, -12)"><rect/><foreignObject width="53.890625" height="24"><div xmlns="http://www.w3.org/1999/xhtml" style="display: table-cell; white-space: nowrap; line-height: 1.5; max-width: 200px; text-align: center;"><span class="nodeLabel"><p>Fanout</p></span></div></foreignObject></g></g><g class="node default" id="my-svg-flowchart-LOCK-10" data-look="classic" transform="translate(1936.799057006836, 722.8529357910156)"><rect class="basic label-container" style="" x="-113.4921875" y="-39" width="226.984375" height="78"/><g class="label" style="" transform="translate(-83.4921875, -24)"><rect/><foreignObject width="166.984375" height="48"><div xmlns="http://www.w3.org/1999/xhtml" style="display: table-cell; white-space: nowrap; line-height: 1.5; max-width: 200px; text-align: center;"><span class="nodeLabel"><p>pg_try_advisory_lock<br />(session, D2)</p></span></div></foreignObject></g></g><g class="node default" id="my-svg-flowchart-SNAP-11" data-look="classic" transform="translate(1494.947494506836, 438.6397018432617)"><path d="M0,15.808823529411764 a107.5,15.808823529411764 0,0,0 215,0 a107.5,15.808823529411764 0,0,0 -215,0 l0,102.80882352941177 a107.5,15.808823529411764 0,0,0 215,0 l0,-102.80882352941177" class="basic label-container outer-path" style="" transform="translate(-107.5, -67.21323529411765)"/><g class="label" style="" transform="translate(-100, -26)"><rect/><foreignObject width="200" height="72"><div xmlns="http://www.w3.org/1999/xhtml" style="display: table; white-space: break-spaces; line-height: 1.5; max-width: 200px; text-align: center; width: 200px;"><span class="nodeLabel"><p>poll_snapshots<br />alerts + silences + member up-state</p></span></div></foreignObject></g></g><g class="node default" id="my-svg-flowchart-HIST-12" data-look="classic" transform="translate(1494.947494506836, 254.2132339477539)"><path d="M0,15.808823529411764 a107.5,15.808823529411764 0,0,0 215,0 a107.5,15.808823529411764 0,0,0 -215,0 l0,102.80882352941177 a107.5,15.808823529411764 0,0,0 215,0 l0,-102.80882352941177" class="basic label-container outer-path" style="" transform="translate(-107.5, -67.21323529411765)"/><g class="label" style="" transform="translate(-100, -26)"><rect/><foreignObject width="200" height="72"><div xmlns="http://www.w3.org/1999/xhtml" style="display: table; white-space: break-spaces; line-height: 1.5; max-width: 200px; text-align: center; width: 200px;"><span class="nodeLabel"><p>history, claims, comments,<br />templates, users</p></span></div></foreignObject></g></g><g class="node default" id="my-svg-flowchart-NOTIFY-13" data-look="classic" transform="translate(1936.799057006836, 570.8529357910156)"><rect class="basic label-container" style="" x="-130" y="-63" width="260" height="126"/><g class="label" style="" transform="translate(-100, -48)"><rect/><foreignObject width="200" height="96"><div xmlns="http://www.w3.org/1999/xhtml" style="display: table; white-space: break-spaces; line-height: 1.5; max-width: 200px; text-align: center; width: 200px;"><span class="nodeLabel"><p>LISTEN/NOTIFY channels:<br />jarvis_snapshot · jarvis_trigger · jarvis_ws</p></span></div></foreignObject></g></g><g class="node default" id="my-svg-flowchart-AM-14" data-look="classic" transform="translate(1494.947494506836, 70)"><rect class="basic label-container" style="" x="-77.1015625" y="-27" width="154.203125" height="54"/><g class="label" style="" transform="translate(-47.1015625, -12)"><rect/><foreignObject width="94.203125" height="24"><div xmlns="http://www.w3.org/1999/xhtml" style="display: table-cell; white-space: nowrap; line-height: 1.5; max-width: 200px; text-align: center;"><span class="nodeLabel"><p>Cluster 1..N</p></span></div></foreignObject></g></g></g></g></g><defs><filter id="my-svg-drop-shadow" height="130%" width="130%"><feDropShadow dx="4" dy="4" stdDeviation="0" flood-opacity="0.06" flood-color="#000000"/></filter></defs><defs><filter id="my-svg-drop-shadow-small" height="150%" width="150%"><feDropShadow dx="2" dy="2" stdDeviation="0" flood-opacity="0.06" flood-color="#000000"/></filter></defs><linearGradient id="my-svg-gradient" gradientUnits="objectBoundingBox" x1="0%" y1="0%" x2="100%" y2="0%"><stop offset="0%" stop-color="hsl(0, 0%, 83.3333333333%)" stop-opacity="1"/><stop offset="100%" stop-color="hsl(0, 0%, 88.9215686275%)" stop-opacity="1"/></linearGradient><text text-anchor="middle" x="1470.0167236328125" y="-25" class="flowchartTitleText">Jarvis multi-replica — leader/follower topology (PostgreSQL only)</text></svg>